<svg width="15" height="16" viewBox="0 0 15 16" fill="none" xmlns="http://www.w3.org/2000/svg">
<path d="M8.125 0.498749H3.125C1.40188 0.498749 0 1.90062 0 3.62375V11.6575C0 12.1531 0.271875 12.6069 0.70875 12.8412C0.9075 12.9481 1.12563 13.0006 1.34312 13.0006C1.60312 13.0006 1.8625 12.925 2.0875 12.7756L4.56437 11.1237H8.125C9.84813 11.1237 11.25 9.72187 11.25 7.99875V3.62375C11.25 1.90062 9.84813 0.498749 8.125 0.498749ZM15 6.12375V14.1575C15 14.6531 14.7281 15.1069 14.2912 15.3412C14.0925 15.4481 13.8744 15.5006 13.6569 15.5012C13.3969 15.5012 13.1375 15.4256 12.9131 15.2762L10.4356 13.6237H6.875C5.96875 13.6237 5.15812 13.2294 4.58687 12.6112L4.9425 12.3737H8.125C10.5369 12.3737 12.5 10.4106 12.5 7.99875V3.62375C12.5 3.43125 12.4831 3.24375 12.4594 3.0575C13.9037 3.3325 15 4.60062 15 6.12375Z" fill="white"/>
</svg>
