<svg width="143" height="54" viewBox="0 0 143 54" fill="none" xmlns="http://www.w3.org/2000/svg">
<g clip-path="url(#clip0_148_3195)">
<path d="M10.5745 30.4963C8.90538 28.3727 8.02538 25.8236 8.02538 23.1218C8.02538 16.5181 13.3963 11.1472 19.9999 11.1472C26.6036 11.1472 31.9745 16.5181 31.9745 23.1218C31.9745 27.4236 29.6436 31.4163 25.8872 33.5472C25.2726 33.8963 25.0581 34.6745 25.4072 35.289C25.6436 35.7036 26.0726 35.9363 26.5199 35.9363C26.7345 35.9363 26.949 35.8818 27.149 35.769C31.7017 33.1872 34.5308 28.3399 34.5308 23.1218C34.5308 15.1108 28.0145 8.59448 20.0036 8.59448C11.9927 8.59448 5.47266 15.1108 5.47266 23.1218C5.47266 26.3872 6.59266 29.5981 8.62902 32.1545C8.65084 32.1836 8.67993 32.2054 8.70175 32.2308C8.71266 32.2418 8.71629 32.2527 8.7272 32.2636L23.029 46.5654C23.2799 46.8163 23.6036 46.9399 23.9308 46.9399C24.2581 46.9399 24.5854 46.8163 24.8326 46.5654C25.3308 46.0672 25.3308 45.2599 24.8326 44.7581L10.5745 30.4999V30.4963Z" fill="white"/>
<path d="M19.9564 32.1798C19.9564 32.1798 19.9855 32.1798 20.0001 32.1798C20.9201 32.1798 21.8292 32.0417 22.7019 31.7689C26.6546 30.5362 29.2583 26.8235 29.0437 22.6417C28.8001 17.9253 24.8546 14.1362 20.1346 14.0671C15.0801 13.9944 10.9419 18.0853 10.9419 23.1253C10.9419 25.1326 11.5855 27.0344 12.8037 28.6271C13.1892 29.1289 13.6183 29.5835 14.0837 29.9835C14.3164 30.1835 14.5492 30.3835 14.7674 30.6017L26.8764 42.7107C27.1274 42.9616 27.451 43.0853 27.7783 43.0853C28.1055 43.0853 28.4328 42.9616 28.6801 42.7107C29.1783 42.2126 29.1783 41.4053 28.6801 40.9035L19.9528 32.1762L19.9564 32.1798ZM20.7383 16.6598C23.8001 16.998 26.2437 19.5253 26.4837 22.5944C26.7237 25.6744 24.8364 28.4271 21.9419 29.3326C21.3164 29.5289 20.6619 29.6271 20.0001 29.6271C19.1492 29.6271 18.3237 29.4635 17.5601 29.158C16.8074 28.8562 16.1419 28.3689 15.571 27.7944L15.3819 27.6053C14.771 26.9944 14.2764 26.3217 13.971 25.5653C13.6583 24.798 13.4983 23.9762 13.4983 23.1253C13.4983 19.2962 16.8255 16.2271 20.7419 16.6598H20.7383Z" fill="#FFA51E"/>
<path d="M40 23.1218C40 12.0927 31.0291 3.12183 20 3.12183C8.97091 3.12183 0 12.0927 0 23.1218C0 28.2418 1.93455 33.0927 5.44727 36.82C5.49455 36.8964 5.55273 36.9691 5.61818 37.0382L19.0836 50.5036C19.3345 50.7545 19.6582 50.8782 19.9855 50.8782C20.3127 50.8782 20.64 50.7545 20.8873 50.5036C21.3855 50.0055 21.3855 49.1982 20.8873 48.6964L7.56 35.3691C7.52727 35.3218 7.49455 35.2745 7.45455 35.2345C4.29455 31.9618 2.55273 27.66 2.55273 23.1218C2.55273 13.5 10.3782 5.67455 20 5.67455C29.6218 5.67455 37.4473 13.5 37.4473 23.1218C37.4473 27.7727 35.6291 32.1546 32.3309 35.4527C32.3273 35.4564 32.3236 35.46 32.32 35.4636C32.3164 35.4673 32.3091 35.4709 32.3055 35.4745L29.7745 38.0018C29.2764 38.5 29.2764 39.3073 29.7745 39.8055C30.0255 40.0564 30.3491 40.18 30.6764 40.18C31.0036 40.18 31.3309 40.0564 31.5782 39.8055L34.1091 37.2782C34.1091 37.2782 34.1164 37.2709 34.12 37.2673C34.1236 37.2636 34.1309 37.26 34.1345 37.2564C37.9164 33.4746 40 28.4564 40 23.1218Z" fill="white"/>
</g>
<path d="M60.8905 16.1C67.1305 16.1 71.0985 19.364 71.0985 24.548C71.0985 29.732 67.1305 32.996 60.8905 32.996H57.6585V38.5H50.1065V16.1H60.8905ZM60.4105 27.172C62.4905 27.172 63.4825 26.18 63.4825 24.548C63.4825 22.916 62.4905 21.924 60.4105 21.924H57.6585V27.172H60.4105ZM83.2393 38.82C77.3193 38.82 73.0633 35.044 73.0633 29.732C73.0633 24.42 77.3193 20.676 83.2393 20.676C89.1913 20.676 93.4153 24.42 93.4153 29.732C93.4153 35.044 89.1913 38.82 83.2393 38.82ZM83.2393 33.188C84.8393 33.188 86.0873 32.004 86.0873 29.732C86.0873 27.46 84.8393 26.308 83.2393 26.308C81.6393 26.308 80.3913 27.46 80.3913 29.732C80.3913 32.004 81.6393 33.188 83.2393 33.188ZM105.567 38.82C99.6468 38.82 95.3908 35.044 95.3908 29.732C95.3908 24.42 99.6468 20.676 105.567 20.676C111.519 20.676 115.743 24.42 115.743 29.732C115.743 35.044 111.519 38.82 105.567 38.82ZM105.567 33.188C107.167 33.188 108.415 32.004 108.415 29.732C108.415 27.46 107.167 26.308 105.567 26.308C103.967 26.308 102.719 27.46 102.719 29.732C102.719 32.004 103.967 33.188 105.567 33.188ZM118.646 38.5V14.756H125.878V38.5H118.646Z" fill="white"/>
<path d="M136.604 22.884C137.884 21.412 139.836 20.676 142.268 20.676V27.076C141.628 26.98 141.18 26.948 140.668 26.948C138.492 26.948 136.956 27.94 136.956 30.724V38.5H129.724V20.996H136.604V22.884Z" fill="#FFA51E"/>
<defs>
<clipPath id="clip0_148_3195">
<rect width="40" height="47.7564" fill="white" transform="translate(0 3.12183)"/>
</clipPath>
</defs>
</svg>
