<svg width="142" height="239" viewBox="0 0 142 239" fill="none" xmlns="http://www.w3.org/2000/svg">
<g clip-path="url(#clip0_1_57)">
<path d="M38.975 95.0583C33.2375 87.7583 30.2125 78.9958 30.2125 69.7083C30.2125 47.0083 48.675 28.5458 71.375 28.5458C94.075 28.5458 112.537 47.0083 112.537 69.7083C112.537 84.4958 104.525 98.2207 91.6125 105.546C89.5 106.746 88.7625 109.421 89.9625 111.533C90.775 112.958 92.25 113.758 93.7875 113.758C94.525 113.758 95.2625 113.571 95.95 113.183C111.6 104.308 121.325 87.6458 121.325 69.7083C121.325 42.1708 98.925 19.7708 71.3875 19.7708C43.85 19.7708 21.4375 42.1708 21.4375 69.7083C21.4375 80.9333 25.2875 91.9707 32.2875 100.758C32.3625 100.858 32.4625 100.933 32.5375 101.021C32.575 101.058 32.5875 101.096 32.625 101.133L81.7875 150.296C82.65 151.158 83.7625 151.583 84.8875 151.583C86.0125 151.583 87.1375 151.158 87.9875 150.296C89.7 148.583 89.7 145.808 87.9875 144.083L38.975 95.0708V95.0583Z" fill="white"/>
<path d="M71.225 100.846C71.225 100.846 71.325 100.846 71.375 100.846C74.5375 100.846 77.6625 100.371 80.6625 99.4333C94.25 95.1958 103.2 82.4333 102.463 68.0583C101.625 51.8458 88.0625 38.8208 71.8375 38.5833C54.4625 38.3333 40.2375 52.3958 40.2375 69.7208C40.2375 76.6208 42.45 83.1583 46.6375 88.6333C47.9625 90.3583 49.4375 91.9208 51.0375 93.2958C51.8375 93.9833 52.6375 94.6708 53.3875 95.4208L95.0125 137.046C95.875 137.908 96.9875 138.333 98.1125 138.333C99.2375 138.333 100.363 137.908 101.213 137.046C102.925 135.333 102.925 132.558 101.213 130.833L71.2125 100.833L71.225 100.846ZM73.9125 47.4958C84.4375 48.6583 92.8375 57.3458 93.6625 67.8958C94.4875 78.4833 88 87.9458 78.05 91.0583C75.9 91.7333 73.65 92.0708 71.375 92.0708C68.45 92.0708 65.6125 91.5083 62.9875 90.4583C60.4 89.4208 58.1125 87.7458 56.15 85.7708L55.5 85.1208C53.4 83.0208 51.7 80.7083 50.65 78.1083C49.575 75.4708 49.025 72.6458 49.025 69.7208C49.025 56.5583 60.4625 46.0083 73.925 47.4958H73.9125Z" fill="#FFA51E"/>
<path d="M140.125 69.7083C140.125 31.7958 109.287 0.958252 71.375 0.958252C33.4625 0.958252 2.625 31.7958 2.625 69.7083C2.625 87.3083 9.275 103.983 21.35 116.796C21.5125 117.058 21.7125 117.308 21.9375 117.546L68.225 163.833C69.0875 164.696 70.2 165.121 71.325 165.121C72.45 165.121 73.575 164.696 74.425 163.833C76.1375 162.121 76.1375 159.346 74.425 157.621L28.6125 111.808C28.5 111.646 28.3875 111.483 28.25 111.346C17.3875 100.096 11.4 85.3083 11.4 69.7083C11.4 36.6333 38.3 9.73325 71.375 9.73325C104.45 9.73325 131.35 36.6333 131.35 69.7083C131.35 85.6958 125.1 100.758 113.763 112.096C113.75 112.108 113.737 112.121 113.725 112.133C113.712 112.146 113.687 112.158 113.675 112.171L104.975 120.858C103.262 122.571 103.262 125.346 104.975 127.058C105.837 127.921 106.95 128.346 108.075 128.346C109.2 128.346 110.325 127.921 111.175 127.058L119.875 118.371C119.875 118.371 119.9 118.346 119.913 118.333C119.925 118.321 119.95 118.308 119.963 118.296C132.963 105.296 140.125 88.0458 140.125 69.7083Z" fill="white"/>
</g>
<path d="M19.0858 192.771C28.4458 192.771 34.3978 197.667 34.3978 205.443C34.3978 213.219 28.4458 218.115 19.0858 218.115H14.2378V226.371H2.90975V192.771H19.0858ZM18.3658 209.379C21.4858 209.379 22.9738 207.891 22.9738 205.443C22.9738 202.995 21.4858 201.507 18.3658 201.507H14.2378V209.379H18.3658ZM52.6089 226.851C43.7289 226.851 37.3449 221.187 37.3449 213.219C37.3449 205.251 43.7289 199.635 52.6089 199.635C61.5369 199.635 67.8729 205.251 67.8729 213.219C67.8729 221.187 61.5369 226.851 52.6089 226.851ZM52.6089 218.403C55.0089 218.403 56.8809 216.627 56.8809 213.219C56.8809 209.811 55.0089 208.083 52.6089 208.083C50.2089 208.083 48.3369 209.811 48.3369 213.219C48.3369 216.627 50.2089 218.403 52.6089 218.403ZM86.1001 226.851C77.2201 226.851 70.8361 221.187 70.8361 213.219C70.8361 205.251 77.2201 199.635 86.1001 199.635C95.0281 199.635 101.364 205.251 101.364 213.219C101.364 221.187 95.0281 226.851 86.1001 226.851ZM86.1001 218.403C88.5001 218.403 90.3721 216.627 90.3721 213.219C90.3721 209.811 88.5001 208.083 86.1001 208.083C83.7001 208.083 81.8281 209.811 81.8281 213.219C81.8281 216.627 83.7001 218.403 86.1001 218.403ZM105.719 226.371V190.755H116.567V226.371H105.719Z" fill="white"/>
<path d="M132.656 202.947C134.576 200.739 137.504 199.635 141.152 199.635V209.235C140.192 209.091 139.52 209.043 138.752 209.043C135.488 209.043 133.184 210.531 133.184 214.707V226.371H122.336V200.115H132.656V202.947Z" fill="#FFA51E"/>
<defs>
<clipPath id="clip0_1_57">
<rect width="137.5" height="164.163" fill="white" transform="translate(2.625 0.958496)"/>
</clipPath>
</defs>
</svg>
