<svg width="27" height="26" viewBox="0 0 27 26" fill="none" xmlns="http://www.w3.org/2000/svg">
<circle cx="13.5" cy="13" r="13" fill="white"/>
<path d="M22.0658 13.1876C22.0655 12.7566 21.9378 12.3353 21.6989 11.9766C21.4599 11.6179 21.1203 11.3378 20.7227 11.1714C20.469 9.72294 19.7126 8.41031 18.5866 7.46443C17.4606 6.51855 16.0372 6 14.5666 6C13.0961 6 11.6726 6.51855 10.5466 7.46443C9.42062 8.41031 8.66423 9.72294 8.41048 11.1714C7.95674 11.3623 7.58065 11.7007 7.34303 12.1318C7.10541 12.5629 7.02014 13.0616 7.10102 13.5471C7.1819 14.0327 7.4242 14.4768 7.78873 14.8076C8.15326 15.1384 8.61872 15.3366 9.10984 15.3701C9.43264 16.0551 9.87042 16.6798 10.4042 17.2169C9.62207 18.0709 9.12571 19.1475 8.98422 20.2969C8.97398 20.3784 8.97989 20.461 9.00161 20.5402C9.02333 20.6194 9.06044 20.6935 9.11082 20.7583C9.1612 20.8232 9.22386 20.8774 9.29522 20.918C9.36658 20.9587 9.44524 20.9848 9.52671 20.995C9.55243 20.9981 9.5783 20.9998 9.60421 21C9.75631 20.9998 9.90313 20.9442 10.0171 20.8435C10.1312 20.7428 10.2046 20.604 10.2236 20.4531C10.3369 19.547 10.7339 18.6999 11.3579 18.0332C12.2886 18.7202 13.4094 19.1016 14.566 19.125C15.7191 19.1014 16.8367 18.7216 17.7653 18.0376C18.3866 18.7032 18.782 19.5478 18.8953 20.4513C18.9142 20.6023 18.9875 20.7412 19.1015 20.842C19.2155 20.9428 19.3624 20.9986 19.5146 20.9987C19.5408 20.9986 19.5668 20.997 19.5928 20.9938C19.7572 20.9732 19.9067 20.8881 20.0084 20.7573C20.1101 20.6265 20.1558 20.4607 20.1353 20.2963C19.9948 19.1498 19.5009 18.0756 18.7222 17.2226C19.2589 16.6838 19.699 16.0567 20.0234 15.3689C20.577 15.3321 21.0959 15.0863 21.4751 14.6814C21.8543 14.2764 22.0655 13.7425 22.0658 13.1876ZM19.7209 14.1083C19.5751 14.0815 19.4246 14.1079 19.2965 14.1825C19.1685 14.2571 19.0714 14.3751 19.0228 14.5151C18.4503 16.1388 16.5222 17.8751 14.566 17.8751C12.6098 17.8751 10.6817 16.1376 10.1092 14.5139C10.0605 14.3739 9.96334 14.256 9.83533 14.1814C9.70731 14.1068 9.55685 14.0804 9.41109 14.107C9.35915 14.1172 9.30648 14.1233 9.25359 14.1251C9.02158 14.1224 8.79885 14.0337 8.62846 13.8762C8.45808 13.7187 8.35215 13.5036 8.33115 13.2725C8.31016 13.0415 8.3756 12.8108 8.51482 12.6252C8.65403 12.4396 8.85714 12.3122 9.08484 12.2677C9.21772 12.2436 9.33923 12.1771 9.43116 12.0782C9.5231 11.9793 9.58052 11.8532 9.59483 11.7189C9.6783 10.9198 9.95408 10.1527 10.3986 9.48333C10.8431 8.81397 11.4431 8.26221 12.1473 7.87525C12.0449 8.2728 12.0402 8.68921 12.1335 9.08898C12.2606 9.61765 12.5566 10.0905 12.9766 10.4358C13.3966 10.7811 13.9177 10.9801 14.4609 11.0026C15.0042 11.025 15.54 10.8698 15.9871 10.5603C16.4341 10.2509 16.7681 9.8041 16.9384 9.28772C16.9662 9.19599 16.972 9.09902 16.9553 9.00464C16.9387 8.91026 16.9 8.82112 16.8425 8.74445C16.785 8.66778 16.7103 8.60572 16.6243 8.56329C16.5384 8.52087 16.4437 8.49927 16.3478 8.50024H16.2535C16.1385 8.504 16.0277 8.54425 15.9372 8.61515C15.8466 8.68604 15.781 8.78392 15.7497 8.89461C15.6771 9.11311 15.5455 9.3073 15.3695 9.45575C15.1934 9.6042 14.9798 9.70115 14.7522 9.7359C14.5246 9.77065 14.2918 9.74184 14.0795 9.65266C13.8672 9.56348 13.6837 9.4174 13.5491 9.23052C13.4146 9.04364 13.3343 8.82324 13.3171 8.59362C13.2999 8.364 13.3465 8.13409 13.4516 7.92925C13.5568 7.72442 13.7165 7.55262 13.9132 7.4328C14.1098 7.31299 14.3357 7.24982 14.566 7.25026C15.8009 7.24731 16.9929 7.70269 17.9113 8.52823C18.8296 9.35377 19.409 10.4907 19.5371 11.7189C19.5515 11.8532 19.6089 11.9793 19.7008 12.0782C19.7927 12.1771 19.9143 12.2436 20.0471 12.2677C20.2748 12.3122 20.4779 12.4396 20.6172 12.6252C20.7564 12.8108 20.8218 13.0415 20.8008 13.2725C20.7798 13.5036 20.6739 13.7187 20.5035 13.8762C20.3331 14.0337 20.1104 14.1224 19.8784 14.1251C19.8255 14.1237 19.7729 14.118 19.7209 14.1083Z" fill="#FFA51E"/>
<path d="M13.0039 14.1251C13.5216 14.1251 13.9414 13.7054 13.9414 13.1876C13.9414 12.6699 13.5216 12.2502 13.0039 12.2502C12.4861 12.2502 12.0664 12.6699 12.0664 13.1876C12.0664 13.7054 12.4861 14.1251 13.0039 14.1251Z" fill="#FFA51E"/>
<path d="M16.1279 14.1251C16.6457 14.1251 17.0654 13.7054 17.0654 13.1876C17.0654 12.6699 16.6457 12.2502 16.1279 12.2502C15.6102 12.2502 15.1904 12.6699 15.1904 13.1876C15.1904 13.7054 15.6102 14.1251 16.1279 14.1251Z" fill="#FFA51E"/>
<path d="M20.9946 13.1876C20.9942 12.7566 20.8666 12.3353 20.6276 11.9766C20.3887 11.6179 20.0491 11.3378 19.6515 11.1714C19.3977 9.72294 18.6413 8.41031 17.5153 7.46443C16.3893 6.51855 14.9659 6 13.4953 6C12.0248 6 10.6013 6.51855 9.47532 7.46443C8.34933 8.41031 7.59294 9.72294 7.33919 11.1714C6.88545 11.3623 6.50936 11.7007 6.27174 12.1318C6.03412 12.5629 5.94885 13.0616 6.02973 13.5471C6.11061 14.0327 6.35291 14.4768 6.71744 14.8076C7.08198 15.1384 7.54743 15.3366 8.03855 15.3701C8.36135 16.0551 8.79914 16.6798 9.3329 17.2169C8.55078 18.0709 8.05442 19.1475 7.91293 20.2969C7.90269 20.3784 7.9086 20.461 7.93032 20.5402C7.95204 20.6194 7.98915 20.6935 8.03953 20.7583C8.08991 20.8232 8.15257 20.8774 8.22393 20.918C8.29529 20.9587 8.37395 20.9848 8.45542 20.995C8.48114 20.9981 8.50701 20.9998 8.53292 21C8.68502 20.9998 8.83184 20.9442 8.94586 20.8435C9.05988 20.7428 9.13327 20.604 9.15228 20.4531C9.26559 19.547 9.66265 18.6999 10.2866 18.0332C11.2173 18.7202 12.3382 19.1016 13.4947 19.125C14.6478 19.1014 15.7654 18.7216 16.694 18.0376C17.3153 18.7032 17.7107 19.5478 17.824 20.4513C17.8429 20.6023 17.9162 20.7412 18.0302 20.842C18.1443 20.9428 18.2912 20.9986 18.4434 20.9987C18.4695 20.9986 18.4956 20.997 18.5215 20.9938C18.6859 20.9732 18.8354 20.8881 18.9371 20.7573C19.0388 20.6265 19.0845 20.4607 19.064 20.2963C18.9235 19.1498 18.4296 18.0756 17.6509 17.2226C18.1876 16.6838 18.6277 16.0567 18.9521 15.3689C19.5057 15.3321 20.0246 15.0863 20.4038 14.6814C20.783 14.2764 20.9942 13.7425 20.9946 13.1876ZM18.6496 14.1083C18.5038 14.0815 18.3533 14.1079 18.2253 14.1825C18.0972 14.2571 18.0001 14.3751 17.9515 14.5151C17.379 16.1388 15.4509 17.8751 13.4947 17.8751C11.5385 17.8751 9.6104 16.1376 9.03791 14.5139C8.98918 14.3739 8.89205 14.256 8.76404 14.1814C8.63602 14.1068 8.48556 14.0804 8.3398 14.107C8.28786 14.1172 8.23519 14.1233 8.1823 14.1251C7.9503 14.1224 7.72756 14.0337 7.55718 13.8762C7.38679 13.7187 7.28086 13.5036 7.25986 13.2725C7.23887 13.0415 7.30431 12.8108 7.44353 12.6252C7.58275 12.4396 7.78585 12.3122 8.01355 12.2677C8.14643 12.2436 8.26794 12.1771 8.35987 12.0782C8.45181 11.9793 8.50923 11.8532 8.52354 11.7189C8.60701 10.9198 8.88279 10.1527 9.32729 9.48333C9.77179 8.81397 10.3718 8.26221 11.076 7.87525C10.9737 8.2728 10.9689 8.68921 11.0622 9.08898C11.1893 9.61765 11.4853 10.0905 11.9053 10.4358C12.3253 10.7811 12.8464 10.9801 13.3897 11.0026C13.9329 11.025 14.4687 10.8698 14.9158 10.5603C15.3629 10.2509 15.6969 9.8041 15.8672 9.28772C15.8949 9.19599 15.9007 9.09902 15.884 9.00464C15.8674 8.91026 15.8287 8.82112 15.7712 8.74445C15.7137 8.66778 15.639 8.60572 15.553 8.56329C15.4671 8.52087 15.3724 8.49927 15.2765 8.50024H15.1822C15.0672 8.504 14.9564 8.54425 14.8659 8.61515C14.7753 8.68604 14.7097 8.78392 14.6784 8.89461C14.6058 9.11311 14.4742 9.3073 14.2982 9.45575C14.1221 9.6042 13.9085 9.70115 13.6809 9.7359C13.4533 9.77065 13.2205 9.74184 13.0082 9.65266C12.7959 9.56348 12.6124 9.4174 12.4778 9.23052C12.3433 9.04364 12.263 8.82324 12.2458 8.59362C12.2286 8.364 12.2752 8.13409 12.3803 7.92925C12.4855 7.72442 12.6453 7.55262 12.8419 7.4328C13.0385 7.31299 13.2644 7.24982 13.4947 7.25026C14.7296 7.24731 15.9216 7.70269 16.84 8.52823C17.7583 9.35377 18.3377 10.4907 18.4659 11.7189C18.4802 11.8532 18.5376 11.9793 18.6295 12.0782C18.7215 12.1771 18.843 12.2436 18.9758 12.2677C19.2035 12.3122 19.4066 12.4396 19.5459 12.6252C19.6851 12.8108 19.7505 13.0415 19.7295 13.2725C19.7085 13.5036 19.6026 13.7187 19.4322 13.8762C19.2618 14.0337 19.0391 14.1224 18.8071 14.1251C18.7542 14.1237 18.7016 14.118 18.6496 14.1083Z" fill="#266578"/>
<path d="M11.9326 14.1251C12.4504 14.1251 12.8701 13.7054 12.8701 13.1876C12.8701 12.6699 12.4504 12.2502 11.9326 12.2502C11.4148 12.2502 10.9951 12.6699 10.9951 13.1876C10.9951 13.7054 11.4148 14.1251 11.9326 14.1251Z" fill="#266578"/>
<path d="M15.0566 14.1251C15.5744 14.1251 15.9941 13.7054 15.9941 13.1876C15.9941 12.6699 15.5744 12.2502 15.0566 12.2502C14.5389 12.2502 14.1191 12.6699 14.1191 13.1876C14.1191 13.7054 14.5389 14.1251 15.0566 14.1251Z" fill="#266578"/>
</svg>
