<svg width="21" height="20" viewBox="0 0 21 20" fill="none" xmlns="http://www.w3.org/2000/svg">
<g clip-path="url(#clip0_1198_791)">
<path d="M20.375 9.58323C20.3745 9.00854 20.2043 8.44679 19.8857 7.96851C19.5671 7.49022 19.1143 7.11672 18.5841 6.89489C18.2458 4.96353 17.2372 3.21332 15.7359 1.95212C14.2346 0.690918 12.3366 -0.000488281 10.3758 -0.000488281C8.41501 -0.000488281 6.51703 0.690918 5.01568 1.95212C3.51434 3.21332 2.5058 4.96353 2.16746 6.89489C1.56246 7.14942 1.061 7.60057 0.744162 8.1754C0.427326 8.75022 0.313636 9.41511 0.421479 10.0625C0.529321 10.71 0.85239 11.3021 1.33844 11.7432C1.8245 12.1843 2.44512 12.4485 3.09996 12.4932C3.53036 13.4066 4.11409 14.2395 4.82579 14.9557C3.78295 16.0944 3.12112 17.5299 2.93246 19.0624C2.9188 19.171 2.92668 19.2813 2.95565 19.3868C2.98461 19.4924 3.03409 19.5912 3.10127 19.6777C3.16844 19.7641 3.25199 19.8365 3.34713 19.8906C3.44228 19.9448 3.54716 19.9796 3.65579 19.9932C3.69008 19.9974 3.72458 19.9996 3.75912 19.9999C3.96193 19.9997 4.15769 19.9255 4.30972 19.7912C4.46175 19.657 4.55961 19.4719 4.58496 19.2707C4.73604 18.0625 5.26547 16.9331 6.09746 16.0441C7.33841 16.9601 8.83287 17.4687 10.375 17.4999C11.9125 17.4684 13.4026 16.9619 14.6408 16.0499C15.4692 16.9374 15.9964 18.0636 16.1475 19.2682C16.1726 19.4696 16.2704 19.6549 16.4224 19.7893C16.5745 19.9237 16.7704 19.998 16.9733 19.9982C17.0081 19.9981 17.0429 19.9958 17.0775 19.9916C17.2967 19.9641 17.496 19.8507 17.6317 19.6763C17.7673 19.5019 17.8281 19.2808 17.8008 19.0616C17.6135 17.533 16.9549 16.1006 15.9166 14.9632C16.6323 14.2448 17.2191 13.4087 17.6516 12.4916C18.3897 12.4425 19.0817 12.1149 19.5873 11.5749C20.0929 11.0349 20.3745 10.323 20.375 9.58323ZM17.2483 10.8107C17.0539 10.7751 16.8532 10.8102 16.6825 10.9097C16.5118 11.0092 16.3823 11.1666 16.3175 11.3532C15.5541 13.5182 12.9833 15.8332 10.375 15.8332C7.76662 15.8332 5.19579 13.5166 4.43246 11.3516C4.36749 11.165 4.23798 11.0078 4.06729 10.9083C3.8966 10.8088 3.69598 10.7736 3.50162 10.8091C3.43237 10.8226 3.36215 10.8307 3.29162 10.8332C2.98228 10.8295 2.6853 10.7113 2.45811 10.5013C2.23092 10.2913 2.08968 10.0045 2.06169 9.69641C2.0337 9.38831 2.12095 9.08078 2.30658 8.83329C2.4922 8.5858 2.76301 8.41594 3.06662 8.35656C3.2438 8.32444 3.40581 8.2358 3.5284 8.1039C3.65098 7.972 3.72754 7.80395 3.74662 7.62489C3.85792 6.55932 4.22563 5.53655 4.81831 4.64404C5.41099 3.75154 6.21101 3.01585 7.14996 2.49989C7.01351 3.02998 7.00722 3.58519 7.13162 4.11823C7.30105 4.82314 7.69567 5.4536 8.25568 5.91403C8.81568 6.37447 9.51053 6.63977 10.2349 6.66973C10.9593 6.6997 11.6737 6.49268 12.2698 6.08007C12.8659 5.66745 13.3112 5.07174 13.5383 4.38323C13.5753 4.26092 13.583 4.13161 13.5608 4.00577C13.5386 3.87993 13.487 3.76108 13.4104 3.65885C13.3337 3.55662 13.234 3.47387 13.1195 3.4173C13.0049 3.36073 12.8786 3.33193 12.7508 3.33323H12.625C12.4717 3.33825 12.324 3.39191 12.2032 3.48644C12.0825 3.58097 11.995 3.71147 11.9533 3.85906C11.8564 4.1504 11.681 4.40933 11.4463 4.60727C11.2116 4.80521 10.9268 4.93447 10.6233 4.9808C10.3197 5.02713 10.0093 4.98873 9.72627 4.86982C9.44321 4.75092 9.19849 4.55613 9.01911 4.30696C8.83974 4.05778 8.73268 3.7639 8.70974 3.45773C8.6868 3.15157 8.74888 2.84502 8.88913 2.5719C9.02938 2.29878 9.24234 2.06971 9.50453 1.90995C9.76671 1.7502 10.0679 1.66597 10.375 1.66656C12.0215 1.66262 13.6109 2.26981 14.8354 3.37055C16.0599 4.47129 16.8324 5.98726 17.0033 7.62489C17.0224 7.80395 17.0989 7.972 17.2215 8.1039C17.3441 8.2358 17.5061 8.32444 17.6833 8.35656C17.9869 8.41594 18.2577 8.5858 18.4433 8.83329C18.629 9.08078 18.7162 9.38831 18.6882 9.69641C18.6602 10.0045 18.519 10.2913 18.2918 10.5013C18.0646 10.7113 17.7676 10.8295 17.4583 10.8332C17.3878 10.8313 17.3176 10.8237 17.2483 10.8107Z" fill="#AFAFAF"/>
<path d="M8.2915 10.8333C8.98186 10.8333 9.5415 10.2736 9.5415 9.58325C9.5415 8.8929 8.98186 8.33325 8.2915 8.33325C7.60115 8.33325 7.0415 8.8929 7.0415 9.58325C7.0415 10.2736 7.60115 10.8333 8.2915 10.8333Z" fill="#AFAFAF"/>
<path d="M12.4585 10.8333C13.1489 10.8333 13.7085 10.2736 13.7085 9.58325C13.7085 8.8929 13.1489 8.33325 12.4585 8.33325C11.7681 8.33325 11.2085 8.8929 11.2085 9.58325C11.2085 10.2736 11.7681 10.8333 12.4585 10.8333Z" fill="#AFAFAF"/>
</g>
<defs>
<clipPath id="clip0_1198_791">
<rect width="20" height="20" fill="white" transform="translate(0.375)"/>
</clipPath>
</defs>
</svg>
