<svg width="21" height="20" viewBox="0 0 21 20" fill="none" xmlns="http://www.w3.org/2000/svg">
<g clip-path="url(#clip0_1198_797)">
<path d="M1 17.9297C1 17.7344 1 17.5391 1 17.3438C1.04635 17.1484 1.08646 16.9516 1.13958 16.7589C2.09635 13.2948 4.2526 10.9297 7.62552 9.67813C7.69375 9.65261 7.76042 9.62344 7.84271 9.59011C7.8 9.55208 7.77656 9.52969 7.75208 9.50938C6.23594 8.27396 5.50781 6.67917 5.73438 4.73385C5.98646 2.56979 7.1974 1.09427 9.22865 0.316667C9.65417 0.154167 10.1219 0.102604 10.5703 0C10.8568 0 11.1432 0 11.4297 0C11.6849 0.0453125 11.9448 0.0734375 12.1948 0.139583C14.3073 0.698438 15.6917 2.03021 16.1687 4.15833C16.6464 6.28958 15.9531 8.08021 14.2792 9.48542C14.2417 9.51719 14.1943 9.53698 14.1219 9.57969C14.2417 9.62031 14.2974 9.63854 14.3521 9.65781C16.4495 10.3969 18.1417 11.6708 19.3974 13.5089C19.5031 13.6641 19.5641 13.8818 19.5635 14.0703C19.5625 14.4073 19.3089 14.6776 18.9953 14.7573C18.6521 14.8448 18.3422 14.7115 18.1078 14.3771C16.0464 11.4323 12.4729 10.0234 9.00469 10.9141C5.59062 11.7911 3.4349 13.9901 2.58958 17.4333C2.45885 17.9651 2.83802 18.4281 3.38698 18.4365C3.68646 18.4411 3.98594 18.4375 4.28542 18.4375C4.59583 18.4375 4.90625 18.4375 5.22552 18.4375C5.34531 16.9297 5.925 15.6516 7.00417 14.6188C8.08906 13.5813 9.39323 13.0417 10.8953 13.0115C12.2443 12.9844 13.463 13.3859 14.526 14.2161C15.8927 15.2833 16.6255 16.701 16.776 18.437C17.3839 18.437 17.9818 18.4391 18.5797 18.4365C19.1521 18.4339 19.5073 18.0089 19.4167 17.4432C19.3464 17.0052 19.6193 16.6036 20.0391 16.5281C20.4661 16.4516 20.8589 16.7214 20.9536 17.1557C20.9672 17.2188 20.9839 17.2807 20.999 17.3432V17.9292C20.9865 17.9651 20.9698 17.9995 20.962 18.0365C20.7656 18.976 20.2141 19.6005 19.301 19.9C19.1792 19.9401 19.0531 19.9667 18.9286 19.9995H3.07031C3.03437 19.987 2.99948 19.9703 2.96302 19.963C2.04427 19.776 1.43177 19.237 1.11823 18.3573C1.06823 18.2188 1.03906 18.0724 1 17.9297ZM10.9953 1.5625C8.92969 1.56458 7.24844 3.25 7.25052 5.31719C7.25208 7.38177 8.93906 9.06458 11.0052 9.0625C13.0703 9.06042 14.7526 7.37344 14.7505 5.30781C14.7484 3.24219 13.063 1.56094 10.9958 1.56302L10.9953 1.5625ZM13.6177 15.5005C12.0573 14.1844 9.68073 14.3432 8.38385 15.5161C8.90729 15.8932 9.42552 16.2724 9.94948 16.6438C10.6109 17.113 11.3531 17.113 12.0187 16.6458C12.5083 16.3026 12.9937 15.9542 13.4807 15.6078C13.5271 15.5745 13.5708 15.5375 13.6177 15.5005ZM14.6625 16.7036C13.7474 17.2583 12.9875 18.0271 11.9531 18.4271H15.199C15.1474 17.8042 14.9688 17.2359 14.6625 16.7036ZM10.0427 18.4318C8.98854 18.0432 8.24323 17.2573 7.33281 16.7073C7.03073 17.2495 6.84323 17.812 6.80469 18.4318H10.0422H10.0427Z" fill="#AFAFAF"/>
</g>
<defs>
<clipPath id="clip0_1198_797">
<rect width="20" height="20" fill="white" transform="translate(0.625)"/>
</clipPath>
</defs>
</svg>
