<svg width="27" height="26" viewBox="0 0 27 26" fill="none" xmlns="http://www.w3.org/2000/svg">
<circle cx="13.5" cy="13" r="13" fill="white"/>
<path d="M13.914 5.05557H14.5346C14.7189 5.08836 14.9065 5.10833 15.087 5.15618C16.6124 5.55976 17.6121 6.52142 17.9566 8.05811C18.3014 9.59706 17.8009 10.8899 16.5921 11.9047C16.5649 11.9277 16.5307 11.942 16.4783 11.9729C16.5649 12.0023 16.6049 12.0151 16.6445 12.0295C18.1589 12.5631 19.381 13.4829 20.2876 14.8104C20.3641 14.9223 20.4082 15.0795 20.4078 15.2155C20.4071 15.4589 20.2239 15.6541 19.9974 15.7114C19.7499 15.7744 19.526 15.6786 19.3568 15.4371C17.8684 13.3107 15.2879 12.2932 12.7835 12.9365C10.3183 13.5695 8.76166 15.1579 8.1512 17.6442C8.057 18.0281 8.33057 18.3624 8.72699 18.3684C8.94329 18.3718 9.15959 18.3692 9.37589 18.3692C9.6001 18.3692 9.82431 18.3692 10.0545 18.3692C10.1408 17.2805 10.5595 16.3573 11.3391 15.6119C12.1226 14.8628 13.0642 14.4732 14.1491 14.4513C15.1228 14.4317 16.0035 14.7219 16.7711 15.3214C17.7576 16.092 18.287 17.1158 18.3956 18.3692C18.8342 18.3692 19.2664 18.3707 19.6982 18.3688C20.1116 18.3669 20.3682 18.0602 20.3023 17.6517C20.2514 17.3355 20.4489 17.0454 20.7518 16.9907C21.0601 16.9353 21.3438 17.1302 21.412 17.4441C21.4218 17.4893 21.4339 17.5345 21.4448 17.5793V18.0025C21.4358 18.0285 21.423 18.0534 21.4181 18.0801C21.2692 18.9005 20.5762 19.4951 19.7446 19.4959C16.0649 19.4989 12.3856 19.5 8.70589 19.4959C7.62214 19.4947 6.80519 18.4984 7.0407 17.4399C7.5351 15.2174 8.78879 13.5541 10.7984 12.4756C11.1602 12.2816 11.5479 12.1365 11.9251 11.9677C11.9115 11.9552 11.8893 11.9319 11.8648 11.9119C10.7833 11.023 10.261 9.87931 10.4204 8.48656C10.6006 6.91256 11.4786 5.84088 12.9584 5.28054C13.2617 5.16561 13.5944 5.12868 13.9136 5.05595L13.914 5.05557ZM16.932 8.89353C16.9327 7.40131 15.7182 6.18454 14.2264 6.18379C12.7338 6.18303 11.5174 7.39754 11.5166 8.88939C11.5159 10.3812 12.7311 11.5984 14.2222 11.5995C15.7141 11.6003 16.9312 10.385 16.9324 8.89353H16.932ZM12.3253 16.2514C12.7066 16.5269 13.0774 16.7971 13.4509 17.0638C13.9407 17.4139 14.4777 17.4154 14.9687 17.0699C15.3214 16.8212 15.6726 16.5702 16.0242 16.3196C16.0559 16.297 16.0845 16.2706 16.1161 16.2443C15.0765 15.3617 13.3567 15.3625 12.3257 16.2518L12.3253 16.2514ZM16.8694 17.1166C16.2062 17.5187 15.6587 18.0737 14.9148 18.3597H17.2553C17.2199 17.9125 17.0902 17.5059 16.8694 17.1166ZM11.1926 18.3639H13.5319C12.7726 18.0858 12.2352 17.5172 11.5773 17.12C11.3572 17.5051 11.2291 17.9121 11.1926 18.3639Z" fill="#FFA51E"/>
<path d="M13.1918 5.05556H13.8124C13.9967 5.08834 14.1844 5.10831 14.3649 5.15617C15.8903 5.55975 16.89 6.52141 17.2344 8.0581C17.5792 9.59705 17.0788 10.8899 15.8699 11.9047C15.8428 11.9277 15.8085 11.942 15.7561 11.9729C15.8428 12.0023 15.8827 12.0151 15.9223 12.0295C17.4367 12.563 18.6588 13.4829 19.5654 14.8104C19.6419 14.9223 19.686 15.0795 19.6856 15.2155C19.6849 15.4589 19.5017 15.6541 19.2753 15.7114C19.0277 15.7743 18.8039 15.6786 18.6347 15.4371C17.1462 13.3107 14.5657 12.2932 12.0613 12.9365C9.59616 13.5695 8.03949 15.1579 7.42904 17.6441C7.33483 18.0281 7.60841 18.3624 8.00482 18.3684C8.22112 18.3718 8.43742 18.3692 8.65372 18.3692C8.87793 18.3692 9.10214 18.3692 9.33238 18.3692C9.41867 17.2805 9.83732 16.3573 10.617 15.6119C11.4004 14.8628 12.3421 14.4732 13.427 14.4513C14.4007 14.4317 15.2813 14.7219 16.0489 15.3214C17.0354 16.092 17.5649 17.1158 17.6734 18.3692C18.112 18.3692 18.5442 18.3707 18.9761 18.3688C19.3895 18.3669 19.6461 18.0602 19.5801 17.6517C19.5293 17.3355 19.7267 17.0454 20.0297 16.9907C20.3379 16.9353 20.6217 17.1302 20.6899 17.444C20.6997 17.4893 20.7117 17.5345 20.7227 17.5793V18.0025C20.7136 18.0285 20.7008 18.0534 20.6959 18.0801C20.5471 18.9005 19.8541 19.4951 19.0224 19.4959C15.3427 19.4989 11.6634 19.5 7.98372 19.4959C6.89997 19.4947 6.08302 18.4984 6.31853 17.4399C6.81293 15.2174 8.06662 13.5541 10.0762 12.4756C10.438 12.2815 10.8257 12.1365 11.2029 11.9677C11.1894 11.9552 11.1671 11.9319 11.1426 11.9119C10.0612 11.023 9.53888 9.87929 9.69828 8.48655C9.8784 6.91255 10.7564 5.84086 12.2362 5.28052C12.5395 5.16559 12.8723 5.12866 13.1914 5.05593L13.1918 5.05556ZM16.2098 8.89352C16.2106 7.40129 14.9961 6.18452 13.5042 6.18377C12.0116 6.18302 10.7952 7.39752 10.7945 8.88937C10.7937 10.3812 12.009 11.5984 13.5001 11.5995C14.9919 11.6002 16.2091 10.385 16.2102 8.89352H16.2098ZM11.6031 16.2514C11.9845 16.5269 12.3553 16.797 12.7287 17.0638C13.2186 17.4139 13.7555 17.4154 14.2465 17.0699C14.5993 16.8212 14.9505 16.5702 15.302 16.3196C15.3337 16.297 15.3623 16.2706 15.394 16.2442C14.3543 15.3617 12.6345 15.3625 11.6035 16.2518L11.6031 16.2514ZM16.1473 17.1166C15.484 17.5187 14.9365 18.0737 14.1927 18.3597H16.5331C16.4977 17.9124 16.3681 17.5058 16.1473 17.1166ZM10.4704 18.3639H12.8097C12.0504 18.0858 11.5131 17.5171 10.8551 17.12C10.6351 17.5051 10.5069 17.9121 10.4704 18.3639Z" fill="#266578"/>
</svg>
