<svg width="30" height="28" viewBox="0 0 30 28" fill="none" xmlns="http://www.w3.org/2000/svg">
<path d="M1.38599 23.8353C1.38599 16.8876 1.38599 9.93922 1.38599 2.99155C1.45694 2.9376 1.53455 2.89029 1.59737 2.82747C2.06967 2.35961 2.54122 1.89101 3.0076 1.41724C3.29142 1.12972 3.56637 0.832601 3.88345 0.5C4.46661 1.08538 5.0106 1.63084 5.5775 2.19996C6.12223 1.65302 6.66104 1.11199 7.24124 0.528825C7.78967 1.08612 8.32996 1.63528 8.89168 2.20661C9.44454 1.6508 9.98262 1.10903 10.5591 0.528086C11.1112 1.08833 11.6515 1.6375 12.2443 2.23987C12.7994 1.67371 13.3382 1.12455 13.9199 0.531782C14.4646 1.07873 15.0034 1.61976 15.5881 2.20661C16.1202 1.66928 16.662 1.12233 17.2134 0.565781C17.968 1.32263 18.7138 2.07801 19.4699 2.82377C19.6184 2.97012 19.6842 3.11572 19.6842 3.32785C19.6768 5.72849 19.6798 8.12987 19.6798 10.5305V10.8675C19.8276 10.8675 19.937 10.8675 20.0471 10.8675C22.1521 10.8675 24.2579 10.855 26.3628 10.872C27.6519 10.8823 28.6622 11.45 29.3134 12.566C29.5314 12.9393 29.6209 13.3872 29.7687 13.8011V22.5041H24.7242C24.7242 23.0762 24.7265 23.6025 24.7242 24.128C24.7161 25.9832 23.2453 27.4872 21.3871 27.4917C16.0847 27.5028 10.7816 27.5028 5.4792 27.4917C3.6462 27.488 2.04601 26.2381 1.54859 24.4724C1.48946 24.2618 1.44142 24.0474 1.3882 23.8353H1.38599ZM18.4654 25.8353C18.0471 25.1169 18.0101 24.3874 18.0116 23.6409C18.0205 20.1952 18.0153 16.7487 18.0153 13.3022C18.0153 10.1979 18.0153 7.09363 18.0131 3.98935C18.0131 3.8844 18.0123 3.74988 17.9525 3.67893C17.7234 3.40472 17.4706 3.15046 17.1904 2.85112C16.5999 3.44537 16.0566 3.99157 15.4794 4.57252C14.9317 4.0204 14.3944 3.47789 13.8238 2.90286C13.2805 3.44906 12.7373 3.99601 12.1615 4.57399C11.6116 4.01744 11.0743 3.47419 10.5074 2.90064C9.9597 3.45202 9.41572 3.99822 8.80521 4.61243C8.25752 4.03961 7.72536 3.48232 7.15551 2.8866C6.60487 3.44093 6.06679 3.9827 5.46663 4.5873C4.93743 4.03518 4.40453 3.47863 3.8561 2.90581C3.6292 3.14011 3.40524 3.34854 3.21012 3.58136C3.12586 3.68262 3.0549 3.8334 3.0549 3.96201C3.04751 10.3923 3.04751 16.8226 3.05195 23.2529C3.05195 23.499 3.08003 23.7533 3.14286 23.9905C3.44294 25.1199 4.40674 25.8331 5.63589 25.8346C9.82075 25.8383 14.0063 25.8361 18.1912 25.8361C18.2636 25.8361 18.3361 25.8361 18.4647 25.8361L18.4654 25.8353ZM19.6783 12.5372V12.8107C19.6783 16.5676 19.6783 20.3252 19.6783 24.0822C19.6783 24.9129 20.1476 25.5656 20.8868 25.7725C21.9718 26.077 23.0561 25.2618 23.0575 24.1258C23.0627 20.8485 23.0612 17.5713 23.0575 14.2941C23.0575 13.7397 23.1647 13.2142 23.4064 12.7153C23.4323 12.6621 23.447 12.603 23.4707 12.5372H19.6776H19.6783ZM28.102 20.833C28.102 18.5735 28.1042 16.3473 28.0975 14.1211C28.0975 13.9681 28.0539 13.8092 28.0022 13.6636C27.7317 12.9008 26.9098 12.416 26.1352 12.552C25.2956 12.6998 24.7257 13.3613 24.7242 14.2172C24.7191 16.3606 24.722 18.5041 24.7235 20.6475C24.7235 20.7088 24.7368 20.7702 24.7442 20.833H28.102Z" fill="#FFA51E"/>
<path d="M7.9248 20.8263V19.1959H16.2029V20.8263H7.9248Z" fill="#FFA51E"/>
<path d="M16.2029 24.1605H7.927V22.5219H16.2029V24.1605Z" fill="#FFA51E"/>
<path d="M6.22329 20.8345H4.60242V19.1981H6.22329V20.8345Z" fill="#FFA51E"/>
<path d="M4.59875 22.5204H6.22776V24.1546H4.59875V22.5204Z" fill="#FFA51E"/>
<path fill-rule="evenodd" clip-rule="evenodd" d="M14.483 9.59948L14.488 9.59453V9.56376C14.488 9.16731 14.1657 8.84801 13.7677 8.84801H12.9875C12.8917 8.59718 12.7654 8.35824 12.6152 8.14005H13.7634C14.1614 8.14005 14.4837 7.82076 14.4837 7.42431C14.4837 7.02785 14.1614 6.70856 13.7634 6.70856H7.30007C6.9021 6.70856 6.57982 7.02785 6.57982 7.42431C6.57982 7.82076 6.9021 8.14005 7.30007 8.14005H9.88542C10.4808 8.14005 11.0093 8.41559 11.3514 8.84801H7.30007C6.9021 8.84801 6.57982 9.16731 6.57982 9.56376C6.57982 9.96022 6.9021 10.2795 7.30007 10.2795H11.727C11.5872 11.1651 10.8146 11.8433 9.88542 11.8433H7.30007C6.9979 11.8433 6.7242 12.0335 6.62299 12.32C6.51733 12.6068 6.60903 12.9264 6.84411 13.117M6.84418 13.1171L11.5838 16.9679C11.7183 17.0777 11.8816 17.1301 12.0399 17.1301C12.2466 17.1301 12.4528 17.0394 12.5963 16.8683L12.5965 16.8681C12.8516 16.5622 12.8032 16.1086 12.4956 15.8604L9.31802 13.279H9.88542C11.607 13.279 13.0287 11.9589 13.1769 10.2838H13.7634C14.1508 10.2838 14.4665 9.98124 14.483 9.59948" fill="#FFA51E"/>
<path d="M0.231445 23.8353C0.231445 16.8876 0.231445 9.93922 0.231445 2.99155C0.3024 2.9376 0.380007 2.89029 0.442832 2.82747C0.915125 2.35961 1.38668 1.89101 1.85306 1.41724C2.13688 1.12972 2.41183 0.832601 2.72891 0.5C3.31207 1.08538 3.85606 1.63084 4.42296 2.19996C4.96768 1.65302 5.5065 1.11199 6.0867 0.528825C6.63512 1.08612 7.17542 1.63528 7.73714 2.20661C8.29 1.6508 8.82807 1.10903 9.40458 0.528086C9.9567 1.08833 10.497 1.6375 11.0898 2.23987C11.6448 1.67371 12.1836 1.12455 12.7653 0.531782C13.3101 1.07873 13.8489 1.61976 14.4335 2.20661C14.9657 1.66928 15.5074 1.12233 16.0588 0.565781C16.8135 1.32263 17.5592 2.07801 18.3153 2.82377C18.4639 2.97012 18.5297 3.11572 18.5297 3.32785C18.5223 5.72849 18.5252 8.12987 18.5252 10.5305V10.8675C18.6731 10.8675 18.7825 10.8675 18.8926 10.8675C20.9976 10.8675 23.1033 10.855 25.2083 10.872C26.4973 10.8823 27.5077 11.45 28.1588 12.566C28.3769 12.9393 28.4663 13.3872 28.6141 13.8011V22.5041H23.5697C23.5697 23.0762 23.5719 23.6025 23.5697 24.128C23.5616 25.9832 22.0907 27.4872 20.2326 27.4917C14.9302 27.5028 9.62706 27.5028 4.32466 27.4917C2.49165 27.488 0.891474 26.2381 0.39405 24.4724C0.334921 24.2618 0.286879 24.0474 0.233663 23.8353H0.231445ZM17.3109 25.8353C16.8925 25.1169 16.8556 24.3874 16.8571 23.6409C16.8659 20.1952 16.8608 16.7487 16.8608 13.3022C16.8608 10.1979 16.8608 7.09363 16.8585 3.98935C16.8585 3.8844 16.8578 3.74988 16.7979 3.67893C16.5688 3.40472 16.316 3.15046 16.0359 2.85112C15.4454 3.44537 14.9021 3.99157 14.3249 4.57252C13.7772 4.0204 13.2398 3.47789 12.6692 2.90286C12.126 3.44906 11.5827 3.99601 11.007 4.57399C10.4571 4.01744 9.91974 3.47419 9.35285 2.90064C8.80516 3.45202 8.26117 3.99822 7.65067 4.61243C7.10298 4.03961 6.57082 3.48232 6.00096 2.8866C5.45033 3.44093 4.91225 3.9827 4.31209 4.5873C3.78289 4.03518 3.24998 3.47863 2.70156 2.90581C2.47465 3.14011 2.2507 3.34854 2.05558 3.58136C1.97132 3.68262 1.90036 3.8334 1.90036 3.96201C1.89297 10.3923 1.89297 16.8226 1.89741 23.2529C1.89741 23.499 1.92549 23.7533 1.98832 23.9905C2.2884 25.1199 3.2522 25.8331 4.48135 25.8346C8.66621 25.8383 12.8518 25.8361 17.0367 25.8361C17.1091 25.8361 17.1815 25.8361 17.3101 25.8361L17.3109 25.8353ZM18.5238 12.5372V12.8107C18.5238 16.5676 18.5238 20.3252 18.5238 24.0822C18.5238 24.9129 18.9931 25.5656 19.7322 25.7725C20.8172 26.077 21.9015 25.2618 21.903 24.1258C21.9082 20.8485 21.9067 17.5713 21.903 14.2941C21.903 13.7397 22.0102 13.2142 22.2519 12.7153C22.2777 12.6621 22.2925 12.603 22.3162 12.5372H18.523H18.5238ZM26.9474 20.833C26.9474 18.5735 26.9497 16.3473 26.943 14.1211C26.943 13.9681 26.8994 13.8092 26.8477 13.6636C26.5771 12.9008 25.7553 12.416 24.9807 12.552C24.141 12.6998 23.5712 13.3613 23.5697 14.2172C23.5645 16.3606 23.5675 18.5041 23.569 20.6475C23.569 20.7088 23.5823 20.7702 23.5896 20.833H26.9474Z" fill="#266578"/>
<path d="M6.89819 20.8263V19.1959H15.1763V20.8263H6.89819Z" fill="#266578"/>
<path d="M15.1762 24.1605H6.90039V22.5219H15.1762V24.1605Z" fill="#266578"/>
<path d="M5.1968 20.8345H3.57593V19.1981H5.1968V20.8345Z" fill="#266578"/>
<path d="M3.57227 22.5204H5.20127V24.1546H3.57227V22.5204Z" fill="#266578"/>
<path fill-rule="evenodd" clip-rule="evenodd" d="M13.4565 9.59948L13.4615 9.59453V9.56376C13.4615 9.16731 13.1392 8.84801 12.7413 8.84801H11.961C11.8652 8.59718 11.7389 8.35824 11.5887 8.14005H12.737C13.1349 8.14005 13.4572 7.82076 13.4572 7.42431C13.4572 7.02785 13.1349 6.70856 12.737 6.70856H6.27358C5.87561 6.70856 5.55333 7.02785 5.55333 7.42431C5.55333 7.82076 5.87561 8.14005 6.27358 8.14005H8.85893C9.45434 8.14005 9.9828 8.41559 10.3249 8.84801H6.27358C5.87561 8.84801 5.55333 9.16731 5.55333 9.56376C5.55333 9.96022 5.87561 10.2795 6.27358 10.2795H10.7005C10.5607 11.1651 9.78808 11.8433 8.85893 11.8433H6.27358C5.97141 11.8433 5.69771 12.0335 5.5965 12.32C5.49084 12.6068 5.58254 12.9264 5.81763 13.117M5.81769 13.1171L10.5573 16.9679C10.6919 17.0777 10.8551 17.1301 11.0134 17.1301C11.2201 17.1301 11.4263 17.0394 11.5698 16.8683L11.57 16.8681C11.8251 16.5622 11.7767 16.1086 11.4691 15.8604L8.29153 13.279H8.85893C10.5805 13.279 12.0022 11.9589 12.1504 10.2838H12.737C13.1243 10.2838 13.44 9.98124 13.4565 9.59948" fill="#266578"/>
</svg>
