<svg width="28" height="32" viewBox="0 0 28 32" fill="none" xmlns="http://www.w3.org/2000/svg">
<path d="M14.8569 0.934998C17.0278 1.87806 19.2042 2.80699 21.3665 3.76966C22.3017 4.18627 22.6744 5.27526 22.2468 6.20733C22.0428 6.65219 21.7948 7.07664 21.5932 7.52228C21.5265 7.66978 21.5124 7.85573 21.5202 8.02127C21.5446 8.53909 21.6395 9.05769 21.6097 9.5708C21.5916 9.88228 21.4418 10.2157 21.2629 10.4786C21.1201 10.688 21.0542 10.8803 21.044 11.1196C20.986 12.5067 20.7804 13.8679 20.2947 15.1766C19.9472 16.1142 19.4458 16.9591 18.7844 17.7115C18.6926 17.8159 18.6322 17.983 18.6267 18.1234C18.6079 18.6224 18.6252 19.1238 18.6158 19.6236C18.6126 19.7883 18.6597 19.888 18.8064 19.9758C19.4372 20.3524 20.0429 20.7745 20.6917 21.1158C21.0746 21.3167 21.5179 21.4045 21.9392 21.5277C22.7661 21.7686 23.5994 21.9867 24.4247 22.2338C26.5133 22.8591 27.9318 24.7013 27.9828 26.8754C28.0087 27.9824 27.993 29.091 27.9898 30.1988C27.9883 30.606 27.7364 30.8775 27.3794 30.8845C27.0123 30.8916 26.7439 30.6092 26.7424 30.1941C26.7384 29.1742 26.7424 28.155 26.7408 27.1351C26.7377 25.2937 25.6973 23.905 23.9312 23.395C22.9811 23.1212 22.0263 22.8662 21.0777 22.5877C20.8855 22.5312 20.8047 22.5892 20.7098 22.7454C20.232 23.5331 19.7448 24.3137 19.256 25.0944C18.7123 25.9629 17.8806 26.2352 16.9226 25.8641C16.6755 25.7683 16.3593 26.0751 16.3923 26.3944C16.4723 27.1743 16.5617 27.9526 16.6473 28.7325C16.7014 29.2291 16.7422 29.7281 16.812 30.2224C16.8677 30.6139 16.7445 30.8916 16.3868 31.0634H15.9749C15.7693 30.9073 15.5959 30.7331 15.57 30.4546C15.5332 30.0552 15.4884 29.6559 15.4445 29.2573C15.3676 28.5583 15.2884 27.86 15.2154 27.2065H13.8958C13.7851 28.2115 13.6635 29.2314 13.567 30.2545C13.5333 30.6123 13.4242 30.8963 13.0916 31.065H12.7385C12.3603 30.8814 12.2513 30.5911 12.3039 30.1729C12.4623 28.909 12.591 27.6419 12.7267 26.3756C12.7628 26.0414 12.4168 25.7754 12.1148 25.8962C11.2784 26.2297 10.4075 25.9535 9.91091 25.176C9.39936 24.3749 8.89881 23.5668 8.40923 22.7532C8.30253 22.5751 8.20367 22.5422 8.01302 22.5979C7.04486 22.8795 6.0712 23.1408 5.10382 23.424C3.44916 23.9089 2.3892 25.3266 2.38214 27.0535C2.37743 28.1126 2.38449 29.171 2.379 30.2302C2.37743 30.5809 2.16481 30.8367 1.86196 30.8853C1.57246 30.9316 1.28216 30.7692 1.18331 30.4883C1.14879 30.3895 1.14016 30.2773 1.14016 30.1714C1.13702 29.1122 1.12839 28.0538 1.14016 26.9946C1.16683 24.688 2.64418 22.7917 4.87002 22.182C5.93625 21.8902 7.00171 21.5928 8.0648 21.2868C8.24918 21.2335 8.42571 21.1386 8.59125 21.0381C9.16164 20.6937 9.72104 20.332 10.2938 19.9923C10.4601 19.8934 10.5362 19.7805 10.5048 19.593C10.5017 19.5741 10.5048 19.5537 10.5048 19.5341C10.5048 19.0343 10.6107 18.5024 10.4742 18.0434C10.344 17.6048 9.95641 17.2439 9.69044 16.8438C8.83212 15.5508 8.40688 14.1033 8.20995 12.582C8.13934 12.0383 8.12286 11.4883 8.06167 10.943C8.04676 10.8096 7.98164 10.6637 7.89534 10.5609C7.64584 10.2628 7.48579 9.93328 7.50226 9.54413C7.52345 9.03651 7.58151 8.52967 7.60348 8.02206C7.61054 7.85573 7.58778 7.67214 7.52031 7.52307C7.33123 7.1041 7.10606 6.70083 6.90677 6.28658C6.42426 5.28546 6.7985 4.20589 7.81374 3.75162C9.81519 2.85564 11.8245 1.98005 13.8322 1.09819C13.9734 1.03621 14.1225 0.992271 14.2684 0.939705C14.4646 0.939705 14.6607 0.939705 14.8569 0.939705V0.934998ZM14.5391 7.05468C16.4111 7.05468 18.2823 7.05075 20.1543 7.06017C20.3614 7.06095 20.4681 6.99426 20.5529 6.81224C20.7176 6.45761 20.9091 6.11476 21.0801 5.76327C21.2715 5.36941 21.1633 5.0493 20.7616 4.87121C18.8033 4.00268 16.8442 3.13573 14.8765 2.28682C14.7015 2.2115 14.4379 2.20836 14.2637 2.2829C12.296 3.13102 10.3377 3.99876 8.37863 4.86571C7.96203 5.05009 7.85219 5.36706 8.05225 5.77582C8.22407 6.12731 8.41316 6.47095 8.57556 6.82715C8.65637 7.00446 8.75915 7.06017 8.95451 7.05938C10.8163 7.05075 12.6781 7.05468 14.5399 7.05468H14.5391ZM9.38289 11.0937C9.35621 11.1046 9.32954 11.1156 9.30286 11.1266C9.34994 11.5832 9.38289 12.0422 9.44565 12.4965C9.63944 13.9111 10.0011 15.2809 10.923 16.4037C11.4597 17.0572 12.1281 17.6025 12.7291 18.205C13.1583 18.635 13.6635 18.7974 14.2708 18.7864C15.7889 18.7597 15.6069 18.8664 16.8505 17.8253C18.2909 16.6186 19.2065 15.1138 19.5353 13.2646C19.6608 12.5577 19.7338 11.8414 19.8303 11.129L19.7502 11.1023C19.6804 11.1643 19.6075 11.2247 19.5408 11.289C19.1453 11.6703 18.7491 12.0501 18.3576 12.4345C17.6429 13.1359 16.7861 13.4764 15.7858 13.4678C15.0208 13.4615 14.2559 13.4482 13.4917 13.4709C12.3666 13.5039 11.4267 13.1202 10.6453 12.3121C10.2389 11.8916 9.80577 11.4985 9.38446 11.0929L9.38289 11.0937ZM8.82035 8.30921C8.79524 8.51084 8.77014 8.66541 8.75758 8.82075C8.74503 8.97688 8.74189 9.1338 8.74032 9.29071C8.7364 9.75675 8.8023 9.82422 9.25657 9.82422C11.2259 9.82422 13.1951 9.82265 15.1644 9.82187C16.7516 9.82187 18.3388 9.82187 19.926 9.82187C20.2924 9.82187 20.3858 9.73478 20.3818 9.37858C20.3795 9.144 20.3442 8.90941 20.3489 8.67482C20.3552 8.38845 20.2516 8.30058 19.9519 8.30136C16.3562 8.31313 12.7605 8.30921 9.16478 8.30921H8.82035ZM17.3785 19.0257C17.209 19.1685 17.1047 19.2564 17.0011 19.3442C16.5147 19.7554 15.9568 20.0017 15.3174 20.0237C14.809 20.0409 14.2982 20.0402 13.7898 20.0213C13.1386 19.997 12.5792 19.7318 12.0912 19.3074C11.9994 19.2281 11.9045 19.1528 11.7868 19.0563C11.7107 19.5843 11.7421 19.9868 12.1658 20.3532C12.9276 21.0122 13.6274 21.7443 14.3539 22.4449C14.4214 22.51 14.4952 22.5696 14.5736 22.6387C15.4892 21.756 16.3852 20.893 17.2773 20.0268C17.3275 19.9774 17.3706 19.8958 17.3746 19.8275C17.3863 19.5867 17.3793 19.345 17.3793 19.0257H17.3785ZM9.41898 22.0032C9.95641 22.8646 10.4719 23.7065 11.0054 24.5366C11.1788 24.8072 11.4816 24.8582 11.7547 24.677C12.3588 24.2776 12.9519 23.8618 13.5733 23.4366C12.7244 22.6151 11.8888 21.807 11.0493 20.9942C10.4986 21.3347 9.96818 21.6627 9.41898 22.0024V22.0032ZM19.6992 22.0008C19.1493 21.6595 18.6197 21.3316 18.0752 20.9934C17.2318 21.8094 16.3978 22.6167 15.5512 23.4358C16.1671 23.8579 16.7532 24.2667 17.3471 24.6629C17.6327 24.8535 17.9426 24.8104 18.1215 24.5311C18.6534 23.701 19.1665 22.8591 19.7 22L19.6992 22.0008ZM17.8939 11.0992H11.2415C11.8355 11.8453 12.5447 12.269 13.505 12.2242C14.1892 12.1921 14.878 12.1881 15.5614 12.225C16.5406 12.2784 17.2828 11.8782 17.8939 11.0992ZM15.7199 25.0763C15.3472 24.8214 15.0044 24.5828 14.6552 24.353C14.6121 24.3247 14.5187 24.3216 14.4771 24.349C14.1272 24.5781 13.7836 24.8174 13.4015 25.0787C13.6894 25.358 13.9452 25.6248 14.2214 25.868C14.4293 26.0508 14.7101 26.0429 14.9196 25.8546C15.1872 25.6138 15.4367 25.3533 15.7199 25.0756V25.0763Z" fill="#FFA51E"/>
<path d="M13.7253 0.934998C15.8962 1.87806 18.0726 2.80699 20.2349 3.76966C21.1701 4.18627 21.5428 5.27526 21.1152 6.20733C20.9112 6.65219 20.6633 7.07664 20.4616 7.52228C20.3949 7.66978 20.3808 7.85573 20.3887 8.02127C20.413 8.53909 20.5079 9.05769 20.4781 9.5708C20.4601 9.88228 20.3102 10.2157 20.1313 10.4786C19.9885 10.688 19.9226 10.8803 19.9124 11.1196C19.8544 12.5067 19.6488 13.8679 19.1631 15.1766C18.8156 16.1142 18.3142 16.9591 17.6528 17.7115C17.5611 17.8159 17.5006 17.983 17.4951 18.1234C17.4763 18.6224 17.4936 19.1238 17.4842 19.6236C17.481 19.7883 17.5281 19.888 17.6748 19.9758C18.3056 20.3524 18.9113 20.7745 19.5601 21.1158C19.943 21.3167 20.3863 21.4045 20.8076 21.5277C21.6346 21.7686 22.4678 21.9867 23.2931 22.2338C25.3817 22.8591 26.8002 24.7013 26.8512 26.8754C26.8771 27.9824 26.8614 29.091 26.8582 30.1988C26.8567 30.606 26.6048 30.8775 26.2479 30.8845C25.8807 30.8916 25.6123 30.6092 25.6108 30.1941C25.6069 29.1742 25.6108 28.155 25.6092 27.1351C25.6061 25.2937 24.5657 23.905 22.7996 23.395C21.8495 23.1212 20.8947 22.8662 19.9462 22.5877C19.7539 22.5312 19.6731 22.5892 19.5782 22.7454C19.1004 23.5331 18.6132 24.3137 18.1244 25.0944C17.5807 25.9629 16.749 26.2352 15.7911 25.8641C15.5439 25.7683 15.2277 26.0751 15.2607 26.3944C15.3407 27.1743 15.4301 27.9526 15.5157 28.7325C15.5698 29.2291 15.6106 29.7281 15.6804 30.2224C15.7361 30.6139 15.613 30.8916 15.2552 31.0634H14.8433C14.6377 30.9073 14.4643 30.7331 14.4384 30.4546C14.4016 30.0552 14.3569 29.6559 14.3129 29.2573C14.236 28.5583 14.1568 27.86 14.0838 27.2065H12.7642C12.6535 28.2115 12.5319 29.2314 12.4354 30.2545C12.4017 30.6123 12.2926 30.8963 11.96 31.065H11.6069C11.2288 30.8814 11.1197 30.5911 11.1723 30.1729C11.3307 28.909 11.4594 27.6419 11.5952 26.3756C11.6312 26.0414 11.2852 25.7754 10.9832 25.8962C10.1468 26.2297 9.27595 25.9535 8.77931 25.176C8.26777 24.3749 7.76721 23.5668 7.27764 22.7532C7.17094 22.5751 7.07208 22.5422 6.88143 22.5979C5.91327 22.8795 4.93961 23.1408 3.97223 23.424C2.31756 23.9089 1.25761 25.3266 1.25054 27.0535C1.24584 28.1126 1.2529 29.171 1.24741 30.2302C1.24584 30.5809 1.03322 30.8367 0.730372 30.8853C0.440864 30.9316 0.150571 30.7692 0.0517151 30.4883C0.0171939 30.3895 0.00856357 30.2773 0.00856357 30.1714C0.00542527 29.1122 -0.00320504 28.0538 0.00856357 26.9946C0.0352391 24.688 1.51259 22.7917 3.73843 22.182C4.80466 21.8902 5.87012 21.5928 6.93321 21.2868C7.11759 21.2335 7.29412 21.1386 7.45966 21.0381C8.03005 20.6937 8.58945 20.332 9.16219 19.9923C9.32852 19.8934 9.40462 19.7805 9.37324 19.593C9.3701 19.5741 9.37324 19.5537 9.37324 19.5341C9.37324 19.0343 9.47915 18.5024 9.34264 18.0434C9.2124 17.6048 8.82482 17.2439 8.55885 16.8438C7.70053 15.5508 7.27529 14.1033 7.07836 12.582C7.00775 12.0383 6.99127 11.4883 6.93007 10.943C6.91517 10.8096 6.85005 10.6637 6.76374 10.5609C6.51425 10.2628 6.3542 9.93328 6.37067 9.54413C6.39186 9.03651 6.44992 8.52967 6.47188 8.02206C6.47894 7.85573 6.45619 7.67214 6.38872 7.52307C6.19964 7.1041 5.97446 6.70083 5.77518 6.28658C5.29267 5.28546 5.66691 4.20589 6.68215 3.75162C8.6836 2.85564 10.6929 1.98005 12.7006 1.09819C12.8418 1.03621 12.9909 0.992271 13.1368 0.939705C13.333 0.939705 13.5291 0.939705 13.7253 0.939705V0.934998ZM13.4075 7.05468C15.2795 7.05468 17.1507 7.05075 19.0227 7.06017C19.2298 7.06095 19.3365 6.99426 19.4213 6.81224C19.586 6.45761 19.7775 6.11476 19.9485 5.76327C20.1399 5.36941 20.0317 5.0493 19.63 4.87121C17.6717 4.00268 15.7126 3.13573 13.7449 2.28682C13.5699 2.2115 13.3063 2.20836 13.1321 2.2829C11.1644 3.13102 9.20612 3.99876 7.24704 4.86571C6.83043 5.05009 6.72059 5.36706 6.92066 5.77582C7.09248 6.12731 7.28156 6.47095 7.44397 6.82715C7.52478 7.00446 7.62756 7.06017 7.82292 7.05938C9.68471 7.05075 11.5465 7.05468 13.4083 7.05468H13.4075ZM8.2513 11.0937C8.22462 11.1046 8.19795 11.1156 8.17127 11.1266C8.21834 11.5832 8.2513 12.0422 8.31406 12.4965C8.50785 13.9111 8.86954 15.2809 9.79142 16.4037C10.3281 17.0572 10.9965 17.6025 11.5975 18.205C12.0267 18.635 12.5319 18.7974 13.1392 18.7864C14.6573 18.7597 14.4753 18.8664 15.7189 17.8253C17.1593 16.6186 18.0749 15.1138 18.4037 13.2646C18.5292 12.5577 18.6022 11.8414 18.6987 11.129L18.6187 11.1023C18.5488 11.1643 18.4759 11.2247 18.4092 11.289C18.0137 11.6703 17.6175 12.0501 17.226 12.4345C16.5113 13.1359 15.6545 13.4764 14.6542 13.4678C13.8892 13.4615 13.1243 13.4482 12.3601 13.4709C11.235 13.5039 10.2951 13.1202 9.51368 12.3121C9.10727 11.8916 8.67418 11.4985 8.25287 11.0929L8.2513 11.0937ZM7.68876 8.30921C7.66365 8.51084 7.63854 8.66541 7.62599 8.82075C7.61344 8.97688 7.6103 9.1338 7.60873 9.29071C7.60481 9.75675 7.67071 9.82422 8.12498 9.82422C10.0943 9.82422 12.0635 9.82265 14.0328 9.82187C15.62 9.82187 17.2072 9.82187 18.7944 9.82187C19.1608 9.82187 19.2542 9.73478 19.2502 9.37858C19.2479 9.144 19.2126 8.90941 19.2173 8.67482C19.2236 8.38845 19.12 8.30058 18.8203 8.30136C15.2246 8.31313 11.6289 8.30921 8.03319 8.30921H7.68876ZM16.2469 19.0257C16.0774 19.1685 15.9731 19.2564 15.8695 19.3442C15.3831 19.7554 14.8252 20.0017 14.1858 20.0237C13.6774 20.0409 13.1667 20.0402 12.6582 20.0213C12.0071 19.997 11.4477 19.7318 10.9596 19.3074C10.8679 19.2281 10.7729 19.1528 10.6552 19.0563C10.5791 19.5843 10.6105 19.9868 11.0342 20.3532C11.796 21.0122 12.4958 21.7443 13.2224 22.4449C13.2898 22.51 13.3636 22.5696 13.442 22.6387C14.3576 21.756 15.2536 20.893 16.1457 20.0268C16.1959 19.9774 16.239 19.8958 16.243 19.8275C16.2547 19.5867 16.2477 19.345 16.2477 19.0257H16.2469ZM8.28739 22.0032C8.82482 22.8646 9.34029 23.7065 9.8738 24.5366C10.0472 24.8072 10.35 24.8582 10.6231 24.677C11.2272 24.2776 11.8203 23.8618 12.4417 23.4366C11.5928 22.6151 10.7572 21.807 9.91773 20.9942C9.36696 21.3347 8.83659 21.6627 8.28739 22.0024V22.0032ZM18.5677 22.0008C18.0177 21.6595 17.4881 21.3316 16.9436 20.9934C16.1002 21.8094 15.2662 22.6167 14.4196 23.4358C15.0355 23.8579 15.6216 24.2667 16.2155 24.6629C16.5011 24.8535 16.811 24.8104 16.9899 24.5311C17.5218 23.701 18.0349 22.8591 18.5684 22L18.5677 22.0008ZM16.7624 11.0992H10.11C10.7039 11.8453 11.4131 12.269 12.3734 12.2242C13.0576 12.1921 13.7465 12.1881 14.4298 12.225C15.409 12.2784 16.1512 11.8782 16.7624 11.0992ZM14.5883 25.0763C14.2156 24.8214 13.8728 24.5828 13.5236 24.353C13.4805 24.3247 13.3871 24.3216 13.3455 24.349C12.9956 24.5781 12.652 24.8174 12.2699 25.0787C12.5578 25.358 12.8136 25.6248 13.0898 25.868C13.2977 26.0508 13.5786 26.0429 13.788 25.8546C14.0556 25.6138 14.3051 25.3533 14.5883 25.0756V25.0763Z" fill="#266578"/>
</svg>
