<svg width="21" height="21" viewBox="0 0 21 21" fill="none" xmlns="http://www.w3.org/2000/svg">
<path d="M19.3925 7.55751L13.0717 1.23584C12.2894 0.455835 11.2297 0.0178223 10.125 0.0178223C9.02029 0.0178223 7.96064 0.455835 7.17834 1.23584L0.85751 7.55751C0.624531 7.789 0.439818 8.06443 0.314079 8.36783C0.188339 8.67124 0.124075 8.99658 0.12501 9.32501V17.5058C0.12501 18.1689 0.388402 18.8048 0.857243 19.2736C1.32608 19.7425 1.96197 20.0058 2.62501 20.0058H17.625C18.2881 20.0058 18.9239 19.7425 19.3928 19.2736C19.8616 18.8048 20.125 18.1689 20.125 17.5058V9.32501C20.1259 8.99658 20.0617 8.67124 19.9359 8.36783C19.8102 8.06443 19.6255 7.789 19.3925 7.55751ZM12.625 18.3392H7.62501V15.0608C7.62501 14.3978 7.8884 13.7619 8.35724 13.2931C8.82608 12.8242 9.46197 12.5608 10.125 12.5608C10.7881 12.5608 11.4239 12.8242 11.8928 13.2931C12.3616 13.7619 12.625 14.3978 12.625 15.0608V18.3392ZM18.4583 17.5058C18.4583 17.7269 18.3705 17.9388 18.2143 18.0951C18.058 18.2514 17.846 18.3392 17.625 18.3392H14.2917V15.0608C14.2917 13.9558 13.8527 12.896 13.0713 12.1146C12.2899 11.3332 11.2301 10.8942 10.125 10.8942C9.01994 10.8942 7.96013 11.3332 7.17873 12.1146C6.39733 12.896 5.95834 13.9558 5.95834 15.0608V18.3392H2.62501C2.404 18.3392 2.19203 18.2514 2.03575 18.0951C1.87947 17.9388 1.79168 17.7269 1.79168 17.5058V9.32501C1.79245 9.10416 1.88017 8.8925 2.03584 8.73584L8.35668 2.41668C8.82643 1.94912 9.46223 1.68663 10.125 1.68663C10.7878 1.68663 11.4236 1.94912 11.8933 2.41668L18.2142 8.73834C18.3692 8.89438 18.4569 9.10503 18.4583 9.32501V17.5058Z" fill="#AFAFAF"/>
</svg>
