<svg width="30" height="28" viewBox="0 0 30 28" fill="none" xmlns="http://www.w3.org/2000/svg">
<path opacity="0.5" d="M21.7083 11.7122C17.2062 11.7122 13.5417 15.3755 13.5417 19.8788C13.5417 24.3565 17.2062 28 21.7083 28C26.2105 28 29.875 24.3367 29.875 19.8333C29.875 15.3557 26.2105 11.7122 21.7083 11.7122ZM21.7083 25.6667C18.4918 25.6667 15.875 23.0697 15.875 19.8788C15.875 16.6623 18.4918 14.0455 21.7083 14.0455C24.9248 14.0455 27.5417 16.6425 27.5417 19.8333C27.5417 23.0498 24.9248 25.6667 21.7083 25.6667ZM23.6998 20.1752C24.156 20.6313 24.156 21.3687 23.6998 21.8248C23.4723 22.0523 23.1737 22.1667 22.875 22.1667C22.5763 22.1667 22.2777 22.0523 22.0502 21.8248L20.8835 20.6582C20.6642 20.4388 20.5417 20.1425 20.5417 19.8333V17.5C20.5417 16.856 21.0632 16.3333 21.7083 16.3333C22.3535 16.3333 22.875 16.856 22.875 17.5V19.3503L23.6998 20.1752ZM29.875 8.16667V10.5C29.875 11.144 29.3535 11.6667 28.7083 11.6667C28.0632 11.6667 27.5417 11.144 27.5417 10.5V8.16667C27.5417 6.237 25.9713 4.66667 24.0417 4.66667H7.70833C5.77867 4.66667 4.20833 6.237 4.20833 8.16667V9.33333H14.7083C15.3523 9.33333 15.875 9.856 15.875 10.5C15.875 11.144 15.3523 11.6667 14.7083 11.6667H4.20833V22.1667C4.20833 24.0963 5.77867 25.6667 7.70833 25.6667H12.375C13.019 25.6667 13.5417 26.1893 13.5417 26.8333C13.5417 27.4773 13.019 28 12.375 28H7.70833C4.49183 28 1.875 25.3832 1.875 22.1667V8.16667C1.875 4.95017 4.49183 2.33333 7.70833 2.33333H8.875V1.16667C8.875 0.522667 9.39767 0 10.0417 0C10.6857 0 11.2083 0.522667 11.2083 1.16667V2.33333H20.5417V1.16667C20.5417 0.522667 21.0632 0 21.7083 0C22.3535 0 22.875 0.522667 22.875 1.16667V2.33333H24.0417C27.2582 2.33333 29.875 4.95017 29.875 8.16667Z" fill="#FFA51E"/>
<path d="M20.4583 11.7122C15.9562 11.7122 12.2917 15.3755 12.2917 19.8788C12.2917 24.3565 15.9562 28 20.4583 28C24.9605 28 28.625 24.3367 28.625 19.8333C28.625 15.3557 24.9605 11.7122 20.4583 11.7122ZM20.4583 25.6667C17.2418 25.6667 14.625 23.0697 14.625 19.8788C14.625 16.6623 17.2418 14.0455 20.4583 14.0455C23.6748 14.0455 26.2917 16.6425 26.2917 19.8333C26.2917 23.0498 23.6748 25.6667 20.4583 25.6667ZM22.4498 20.1752C22.906 20.6313 22.906 21.3687 22.4498 21.8248C22.2223 22.0523 21.9237 22.1667 21.625 22.1667C21.3263 22.1667 21.0277 22.0523 20.8002 21.8248L19.6335 20.6582C19.4142 20.4388 19.2917 20.1425 19.2917 19.8333V17.5C19.2917 16.856 19.8132 16.3333 20.4583 16.3333C21.1035 16.3333 21.625 16.856 21.625 17.5V19.3503L22.4498 20.1752ZM28.625 8.16667V10.5C28.625 11.144 28.1035 11.6667 27.4583 11.6667C26.8132 11.6667 26.2917 11.144 26.2917 10.5V8.16667C26.2917 6.237 24.7213 4.66667 22.7917 4.66667H6.45833C4.52867 4.66667 2.95833 6.237 2.95833 8.16667V9.33333H13.4583C14.1023 9.33333 14.625 9.856 14.625 10.5C14.625 11.144 14.1023 11.6667 13.4583 11.6667H2.95833V22.1667C2.95833 24.0963 4.52867 25.6667 6.45833 25.6667H11.125C11.769 25.6667 12.2917 26.1893 12.2917 26.8333C12.2917 27.4773 11.769 28 11.125 28H6.45833C3.24183 28 0.625 25.3832 0.625 22.1667V8.16667C0.625 4.95017 3.24183 2.33333 6.45833 2.33333H7.625V1.16667C7.625 0.522667 8.14767 0 8.79167 0C9.43567 0 9.95833 0.522667 9.95833 1.16667V2.33333H19.2917V1.16667C19.2917 0.522667 19.8132 0 20.4583 0C21.1035 0 21.625 0.522667 21.625 1.16667V2.33333H22.7917C26.0082 2.33333 28.625 4.95017 28.625 8.16667Z" fill="#438DA4"/>
</svg>
