<svg width="20" height="19" viewBox="0 0 20 19" fill="none" xmlns="http://www.w3.org/2000/svg">
<path d="M9.15967 10.75V5.75C9.15967 5.29167 9.53467 4.91667 9.993 4.91667C10.4513 4.91667 10.8263 5.29167 10.8263 5.75V10.75C10.8263 11.2083 10.4513 11.5833 9.993 11.5833C9.53467 11.5833 9.15967 11.2083 9.15967 10.75ZM9.993 12.4167C9.30134 12.4167 8.743 12.975 8.743 13.6667C8.743 14.3583 9.30134 14.9167 9.993 14.9167C10.6847 14.9167 11.243 14.3583 11.243 13.6667C11.243 12.975 10.6847 12.4167 9.993 12.4167ZM19.643 16.4833C19.0597 17.6083 17.8347 18.25 16.3013 18.25H3.693C2.15134 18.25 0.93467 17.6083 0.351336 16.4833C-0.24033 15.35 -0.0736638 13.9 0.768003 12.6833L7.468 2.08333C8.05967 1.23333 8.993 0.75 9.993 0.75C10.993 0.75 11.9263 1.23333 12.493 2.05833L19.2263 12.7C20.068 13.9167 20.2263 15.3583 19.6347 16.4833H19.643ZM17.8513 13.6333C17.8513 13.6333 17.8347 13.6167 17.8347 13.6L11.1097 2.975C10.868 2.63333 10.4513 2.41667 9.993 2.41667C9.53467 2.41667 9.118 2.63333 8.85967 3.00833L2.15134 13.6C1.63467 14.3333 1.518 15.1333 1.818 15.7083C2.10967 16.275 2.77634 16.5833 3.68467 16.5833H16.2847C17.193 16.5833 17.8597 16.275 18.1513 15.7083C18.4513 15.1333 18.3347 14.3333 17.843 13.6333H17.8513Z" fill="#FFA51E"/>
</svg>
