<svg width="28" height="28" viewBox="0 0 28 28" fill="none" xmlns="http://www.w3.org/2000/svg">
<path d="M19.4111 24.1373C18.8407 26.5783 16.7875 28.0008 14.6698 28C12.6077 28 10.5167 26.6186 9.93499 24.1373C9.83442 24.1373 9.72661 24.1373 9.61799 24.1373C8.07967 24.1373 6.54054 24.1486 5.00222 24.1333C3.34079 24.1172 2.06073 22.7551 2.12671 21.0977C2.18383 19.6623 3.33757 18.4796 4.8051 18.3509C4.86464 18.346 4.92417 18.3412 5.01911 18.3332V18.0073C5.01911 16.2276 5.01831 14.4471 5.01911 12.6674C5.02233 8.40487 7.57682 4.80686 11.5964 3.40129C11.6704 3.37554 11.7428 3.34416 11.812 3.31761C11.5602 1.49689 12.9762 0.0285585 14.632 0.00039875C16.2983 -0.027761 17.7924 1.43896 17.5381 3.32083C17.8052 3.42221 18.0723 3.53887 18.3499 3.61852C18.4167 3.63783 18.5406 3.55737 18.6001 3.48898C19.4602 2.50661 20.5319 1.96031 21.8425 1.93618C23.7872 1.90078 25.5113 3.16314 26.0713 5.00559C26.6321 6.85206 25.92 8.81921 24.2844 9.88204C24.0607 10.0269 24.0261 10.1451 24.0679 10.4074C24.187 11.1492 24.3029 11.8991 24.3174 12.6473C24.3528 14.4262 24.3286 16.2067 24.3286 17.9872C24.3286 18.0966 24.3286 18.2052 24.3286 18.2913C24.6947 18.379 25.0447 18.4257 25.3689 18.5464C26.6248 19.0122 27.4077 20.3623 27.1921 21.648C26.9523 23.0737 25.8243 24.1091 24.4284 24.13C22.8699 24.1534 21.3107 24.1373 19.7523 24.1381C19.6428 24.1381 19.5334 24.1381 19.4119 24.1381L19.4111 24.1373ZM22.2062 10.6174C22.071 10.6174 22.0219 10.6174 21.9729 10.6174C19.284 10.6214 17.2734 8.34774 17.6242 5.68625C17.654 5.46016 17.5655 5.38856 17.3836 5.32258C15.5637 4.65641 13.7406 4.64514 11.9319 5.33546C8.91159 6.48679 6.96294 9.3277 6.95248 12.5677C6.94524 14.7891 6.95248 17.0113 6.95006 19.2327C6.95006 19.8739 6.55422 20.2681 5.91861 20.2746C5.60725 20.2778 5.29508 20.2673 4.98371 20.2786C4.54201 20.2947 4.17995 20.6028 4.07777 21.0309C3.98444 21.4219 4.15903 21.8708 4.52994 22.0599C4.7174 22.1557 4.95072 22.2007 5.16313 22.2007C11.5063 22.2079 17.8495 22.2063 24.1935 22.2063C24.2538 22.2063 24.3141 22.2079 24.3745 22.2039C24.895 22.1717 25.2989 21.7445 25.2941 21.232C25.2901 20.7195 24.8822 20.2979 24.3584 20.277C24.0873 20.2665 23.8153 20.2746 23.5442 20.2746C22.7646 20.2738 22.3993 19.9109 22.3993 19.1337C22.3993 16.9727 22.4138 14.8108 22.3904 12.6497C22.3832 11.9747 22.2714 11.3013 22.207 10.6174H22.2062ZM24.3286 6.28484C24.3326 4.95249 23.2481 3.86391 21.9173 3.86311C20.5987 3.86311 19.5133 4.93639 19.5029 6.25185C19.4924 7.58501 20.5705 8.68163 21.8988 8.68888C23.2304 8.69612 24.3246 7.61317 24.3286 6.28484ZM17.3531 24.1494H11.9971C12.2296 25.1808 13.4429 26.0578 14.6417 26.0674C15.8711 26.0779 17.0956 25.2162 17.3523 24.1494H17.3531ZM15.6361 2.91855C15.6377 2.54523 15.4792 2.26122 15.1695 2.07295C14.8187 1.85974 14.4574 1.87664 14.1219 2.11318C13.8452 2.30789 13.702 2.57581 13.7205 2.91855H15.6361Z" fill="#FFA51E"/>
<path d="M18.0593 24.1373C17.4889 26.5783 15.4356 28.0008 13.318 28C11.2559 28 9.16488 26.6186 8.58318 24.1373C8.48261 24.1373 8.3748 24.1373 8.26619 24.1373C6.72786 24.1373 5.18873 24.1486 3.65041 24.1333C1.98899 24.1172 0.708926 22.7551 0.774901 21.0977C0.832025 19.6623 1.98577 18.4796 3.45329 18.3509C3.51283 18.346 3.57237 18.3412 3.6673 18.3332V18.0073C3.6673 16.2276 3.6665 14.4471 3.6673 12.6674C3.67052 8.40487 6.22501 4.80686 10.2446 3.40129C10.3186 3.37554 10.391 3.34416 10.4602 3.31761C10.2084 1.49689 11.6244 0.0285585 13.2802 0.00039875C14.9465 -0.027761 16.4405 1.43896 16.1863 3.32083C16.4534 3.42221 16.7205 3.53887 16.9981 3.61852C17.0649 3.63783 17.1888 3.55737 17.2483 3.48898C18.1084 2.50661 19.1801 1.96031 20.4907 1.93618C22.4353 1.90078 24.1595 3.16314 24.7195 5.00559C25.2803 6.85206 24.5682 8.81921 22.9326 9.88204C22.7089 10.0269 22.6743 10.1451 22.7161 10.4074C22.8352 11.1492 22.9511 11.8991 22.9656 12.6473C23.001 14.4262 22.9768 16.2067 22.9768 17.9872C22.9768 18.0966 22.9768 18.2052 22.9768 18.2913C23.3429 18.379 23.6929 18.4257 24.0171 18.5464C25.273 19.0122 26.0559 20.3623 25.8403 21.648C25.6005 23.0737 24.4725 24.1091 23.0766 24.13C21.5181 24.1534 19.9589 24.1373 18.4005 24.1381C18.291 24.1381 18.1816 24.1381 18.0601 24.1381L18.0593 24.1373ZM20.8544 10.6174C20.7192 10.6174 20.6701 10.6174 20.6211 10.6174C17.9322 10.6214 15.9216 8.34774 16.2724 5.68625C16.3022 5.46016 16.2137 5.38856 16.0318 5.32258C14.2119 4.65641 12.3888 4.64514 10.5801 5.33546C7.55978 6.48679 5.61113 9.3277 5.60067 12.5677C5.59343 14.7891 5.60067 17.0113 5.59826 19.2327C5.59826 19.8739 5.20241 20.2681 4.56681 20.2746C4.25544 20.2778 3.94327 20.2673 3.6319 20.2786C3.1902 20.2947 2.82815 20.6028 2.72597 21.0309C2.63264 21.4219 2.80723 21.8708 3.17813 22.0599C3.36559 22.1557 3.59892 22.2007 3.81132 22.2007C10.1545 22.2079 16.4977 22.2063 22.8417 22.2063C22.902 22.2063 22.9623 22.2079 23.0227 22.2039C23.5432 22.1717 23.9471 21.7445 23.9423 21.232C23.9383 20.7195 23.5304 20.2979 23.0066 20.277C22.7354 20.2665 22.4635 20.2746 22.1924 20.2746C21.4127 20.2738 21.0475 19.9109 21.0475 19.1337C21.0475 16.9727 21.062 14.8108 21.0386 12.6497C21.0314 11.9747 20.9195 11.3013 20.8552 10.6174H20.8544ZM22.9768 6.28484C22.9808 4.95249 21.8963 3.86391 20.5655 3.86311C19.2469 3.86311 18.1615 4.93639 18.151 6.25185C18.1406 7.58501 19.2187 8.68163 20.547 8.68888C21.8786 8.69612 22.9728 7.61317 22.9768 6.28484ZM16.0013 24.1494H10.6453C10.8778 25.1808 12.0911 26.0578 13.2899 26.0674C14.5193 26.0779 15.7438 25.2162 16.0005 24.1494H16.0013ZM14.2843 2.91855C14.2859 2.54523 14.1274 2.26122 13.8177 2.07295C13.4669 1.85974 13.1056 1.87664 12.7701 2.11318C12.4934 2.30789 12.3501 2.57581 12.3687 2.91855H14.2843Z" fill="#266578"/>
</svg>
