<svg width="40" height="28" viewBox="0 0 40 28" fill="none" xmlns="http://www.w3.org/2000/svg">
<path opacity="0.5" d="M20.7484 20.2222C17.3168 20.2222 14.5261 17.4316 14.5261 14C14.5261 10.5684 17.3168 7.77778 20.7484 7.77778C24.1799 7.77778 26.9706 10.5684 26.9706 14C26.9706 17.4316 24.1799 20.2222 20.7484 20.2222ZM20.7484 10.8889C19.0326 10.8889 17.6372 12.2842 17.6372 14C17.6372 15.7158 19.0326 17.1111 20.7484 17.1111C22.4641 17.1111 23.8595 15.7158 23.8595 14C23.8595 12.2842 22.4641 10.8889 20.7484 10.8889ZM9.85947 6.22222C9.00081 6.22222 8.30392 6.91911 8.30392 7.77778C8.30392 8.63645 9.00081 9.33333 9.85947 9.33333C10.7181 9.33333 11.415 8.63645 11.415 7.77778C11.415 6.91911 10.7181 6.22222 9.85947 6.22222ZM30.0817 10.8889C30.0817 11.7476 30.7786 12.4444 31.6373 12.4444C32.4959 12.4444 33.1928 11.7476 33.1928 10.8889C33.1928 10.0302 32.4959 9.33333 31.6373 9.33333C30.7786 9.33333 30.0817 10.0302 30.0817 10.8889ZM9.85947 15.5556C9.00081 15.5556 8.30392 16.2524 8.30392 17.1111C8.30392 17.9698 9.00081 18.6667 9.85947 18.6667C10.7181 18.6667 11.415 17.9698 11.415 17.1111C11.415 16.2524 10.7181 15.5556 9.85947 15.5556ZM30.0817 20.2222C30.0817 21.0809 30.7786 21.7778 31.6373 21.7778C32.4959 21.7778 33.1928 21.0809 33.1928 20.2222C33.1928 19.3636 32.4959 18.6667 31.6373 18.6667C30.7786 18.6667 30.0817 19.3636 30.0817 20.2222ZM28.5246 28C25.9828 28 23.7055 27.3793 21.5044 26.7789C19.4075 26.2064 17.4288 25.6667 15.3039 25.6667C12.8601 25.6667 11.3186 25.8238 9.98547 26.2096C8.10947 26.7493 6.13703 26.3853 4.57214 25.2078C2.99014 24.0178 2.08325 22.2009 2.08325 20.2222V8.48089C2.08325 5.27178 4.10392 2.34578 7.11236 1.19933C9.19836 0.402889 11.1708 0 12.9737 0C15.5155 0 17.7913 0.620667 19.9939 1.22111C22.0908 1.79356 24.0695 2.33333 26.1944 2.33333C28.6366 2.33333 30.1797 2.17622 31.5128 1.79044C33.3919 1.25067 35.3644 1.61467 36.9277 2.79222C38.5097 3.98222 39.4166 5.79911 39.4166 7.77778V19.5191C39.4166 22.7282 37.3944 25.6542 34.3859 26.8007C32.2999 27.5971 30.329 28 28.5246 28ZM15.3039 22.5556C17.8457 22.5556 20.1215 23.1762 22.3241 23.7767C24.421 24.3491 26.3997 24.8889 28.5246 24.8889C29.9464 24.8889 31.5455 24.5544 33.2784 23.8933C35.1186 23.1933 36.3055 21.476 36.3055 19.5191V7.77778C36.3055 6.78689 35.8497 5.87533 35.0564 5.27956C34.2801 4.69622 33.3048 4.51267 32.373 4.78022C30.7381 5.25156 28.9477 5.44444 26.1912 5.44444C23.6495 5.44444 21.3737 4.82378 19.171 4.22333C17.0741 3.65089 15.0955 3.11111 12.9706 3.11111C11.5473 3.11111 9.9497 3.44556 8.21681 4.10667C6.37659 4.80667 5.1897 6.524 5.1897 8.48089V20.2222C5.1897 21.2131 5.64547 22.1247 6.43881 22.7204C7.21503 23.3038 8.19036 23.4873 9.12058 23.2182C10.7555 22.7469 12.5475 22.554 15.3024 22.554L15.3039 22.5556Z" fill="#FFA51E"/>
<path d="M18.7484 20.2222C15.3168 20.2222 12.5261 17.4316 12.5261 14C12.5261 10.5684 15.3168 7.77778 18.7484 7.77778C22.1799 7.77778 24.9706 10.5684 24.9706 14C24.9706 17.4316 22.1799 20.2222 18.7484 20.2222ZM18.7484 10.8889C17.0326 10.8889 15.6372 12.2842 15.6372 14C15.6372 15.7158 17.0326 17.1111 18.7484 17.1111C20.4641 17.1111 21.8595 15.7158 21.8595 14C21.8595 12.2842 20.4641 10.8889 18.7484 10.8889ZM7.85947 6.22222C7.00081 6.22222 6.30392 6.91911 6.30392 7.77778C6.30392 8.63645 7.00081 9.33333 7.85947 9.33333C8.71814 9.33333 9.41503 8.63645 9.41503 7.77778C9.41503 6.91911 8.71814 6.22222 7.85947 6.22222ZM28.0817 10.8889C28.0817 11.7476 28.7786 12.4444 29.6373 12.4444C30.4959 12.4444 31.1928 11.7476 31.1928 10.8889C31.1928 10.0302 30.4959 9.33333 29.6373 9.33333C28.7786 9.33333 28.0817 10.0302 28.0817 10.8889ZM7.85947 15.5556C7.00081 15.5556 6.30392 16.2524 6.30392 17.1111C6.30392 17.9698 7.00081 18.6667 7.85947 18.6667C8.71814 18.6667 9.41503 17.9698 9.41503 17.1111C9.41503 16.2524 8.71814 15.5556 7.85947 15.5556ZM28.0817 20.2222C28.0817 21.0809 28.7786 21.7778 29.6373 21.7778C30.4959 21.7778 31.1928 21.0809 31.1928 20.2222C31.1928 19.3636 30.4959 18.6667 29.6373 18.6667C28.7786 18.6667 28.0817 19.3636 28.0817 20.2222ZM26.5246 28C23.9828 28 21.7055 27.3793 19.5044 26.7789C17.4075 26.2064 15.4288 25.6667 13.3039 25.6667C10.8601 25.6667 9.31858 25.8238 7.98547 26.2096C6.10947 26.7493 4.13703 26.3853 2.57214 25.2078C0.990141 24.0178 0.083252 22.2009 0.083252 20.2222V8.48089C0.083252 5.27178 2.10392 2.34578 5.11236 1.19933C7.19836 0.402889 9.17081 0 10.9737 0C13.5155 0 15.7913 0.620667 17.9939 1.22111C20.0908 1.79356 22.0695 2.33333 24.1944 2.33333C26.6366 2.33333 28.1797 2.17622 29.5128 1.79044C31.3919 1.25067 33.3644 1.61467 34.9277 2.79222C36.5097 3.98222 37.4166 5.79911 37.4166 7.77778V19.5191C37.4166 22.7282 35.3944 25.6542 32.3859 26.8007C30.2999 27.5971 28.329 28 26.5246 28ZM13.3039 22.5556C15.8457 22.5556 18.1215 23.1762 20.3241 23.7767C22.421 24.3491 24.3997 24.8889 26.5246 24.8889C27.9464 24.8889 29.5455 24.5544 31.2784 23.8933C33.1186 23.1933 34.3055 21.476 34.3055 19.5191V7.77778C34.3055 6.78689 33.8497 5.87533 33.0564 5.27956C32.2801 4.69622 31.3048 4.51267 30.373 4.78022C28.7381 5.25156 26.9477 5.44444 24.1912 5.44444C21.6495 5.44444 19.3737 4.82378 17.171 4.22333C15.0741 3.65089 13.0955 3.11111 10.9706 3.11111C9.54725 3.11111 7.9497 3.44556 6.21681 4.10667C4.37659 4.80667 3.1897 6.524 3.1897 8.48089V20.2222C3.1897 21.2131 3.64547 22.1247 4.43881 22.7204C5.21503 23.3038 6.19036 23.4873 7.12058 23.2182C8.75547 22.7469 10.5475 22.554 13.3024 22.554L13.3039 22.5556Z" fill="#438DA4"/>
</svg>
