<svg width="27" height="26" viewBox="0 0 27 26" fill="none" xmlns="http://www.w3.org/2000/svg">
<circle cx="13.5" cy="13" r="13" fill="white"/>
<path d="M8.1014 6.87123L8.73335 6.32372C9.46159 5.59571 10.6412 5.59571 11.3695 6.32372C11.3875 6.34177 12.5009 7.79178 12.5009 7.79178C13.1871 8.51378 13.1871 9.65092 12.5009 10.3669L11.8028 11.2453C12.6815 13.2368 14.0477 14.6086 15.9736 15.4269L16.8523 14.7229C17.5685 14.031 18.7121 14.031 19.4283 14.7229C19.4283 14.7229 20.8787 15.836 20.8968 15.8541C21.625 16.5821 21.625 17.7613 20.9269 18.4593L20.325 19.1512C19.6329 19.8431 18.7 20.2222 17.6889 20.2222C13.0908 20.2222 7.00002 14.1273 7.00002 9.5366C7.00002 8.53183 7.37918 7.59323 8.1014 6.87725V6.87123ZM17.6889 19.0128C18.375 19.0128 19.007 18.7601 19.4403 18.3209L20.0421 17.629C20.2889 17.3823 20.3009 16.9792 20.0662 16.7205C20.0662 16.7205 18.6278 15.6134 18.6097 15.5954C18.363 15.3487 17.9296 15.3487 17.6769 15.5954C17.6588 15.6134 16.4491 16.5821 16.4491 16.5821C16.2806 16.7145 16.0579 16.7506 15.8593 16.6723C13.3676 15.7217 11.5801 13.9408 10.5509 11.3717C10.4727 11.1731 10.5028 10.9445 10.6412 10.77C10.6412 10.77 11.6102 9.55465 11.6222 9.54262C11.881 9.28391 11.881 8.86876 11.6222 8.61004C11.6042 8.59199 10.4968 7.15402 10.4968 7.15402C10.238 6.91937 9.83474 6.92538 9.55789 7.20215L8.92594 7.74966C8.46252 8.21294 8.20372 8.84469 8.20372 9.53059C8.20372 13.7182 14.0838 19.0128 17.6889 19.0128Z" fill="#FFA51E"/>
<path d="M7.37924 6.87123L8.01118 6.32372C8.73942 5.59571 9.91905 5.59571 10.6473 6.32372C10.6653 6.34177 11.7788 7.79178 11.7788 7.79178C12.4649 8.51378 12.4649 9.65092 11.7788 10.3669L11.0806 11.2453C11.9593 13.2368 13.3255 14.6086 15.2515 15.4269L16.1302 14.7229C16.8464 14.031 17.9899 14.031 18.7061 14.7229C18.7061 14.7229 20.1566 15.836 20.1746 15.8541C20.9028 16.5821 20.9028 17.7613 20.2047 18.4593L19.6028 19.1512C18.9107 19.8431 17.9778 20.2222 16.9667 20.2222C12.3686 20.2222 6.27785 14.1273 6.27785 9.5366C6.27785 8.53183 6.65701 7.59323 7.37924 6.87725V6.87123ZM16.9667 19.0128C17.6528 19.0128 18.2848 18.7601 18.7181 18.3209L19.32 17.629C19.5667 17.3823 19.5788 16.9792 19.3441 16.7205C19.3441 16.7205 17.9056 15.6134 17.8876 15.5954C17.6408 15.3487 17.2075 15.3487 16.9547 15.5954C16.9366 15.6134 15.7269 16.5821 15.7269 16.5821C15.5584 16.7145 15.3357 16.7506 15.1371 16.6723C12.6454 15.7217 10.8579 13.9408 9.82877 11.3717C9.75053 11.1731 9.78063 10.9445 9.91905 10.77C9.91905 10.77 10.888 9.55465 10.9001 9.54262C11.1589 9.28391 11.1589 8.86876 10.9001 8.61004C10.882 8.59199 9.77461 7.15402 9.77461 7.15402C9.51581 6.91937 9.11257 6.92538 8.83572 7.20215L8.20377 7.74966C7.74035 8.21294 7.48155 8.84469 7.48155 9.53059C7.48155 13.7182 13.3616 19.0128 16.9667 19.0128Z" fill="#266578"/>
</svg>
