<svg width="21" height="20" viewBox="0 0 21 20" fill="none" xmlns="http://www.w3.org/2000/svg">
<path d="M18.375 20.0001H16.7083V15.7976C16.7077 15.1442 16.4478 14.5179 15.9859 14.0559C15.5239 13.5939 14.8975 13.3341 14.2442 13.3334H7.50583C6.8525 13.3341 6.22611 13.5939 5.76414 14.0559C5.30216 14.5179 5.04233 15.1442 5.04167 15.7976V20.0001H3.375V15.7976C3.37632 14.7024 3.81196 13.6525 4.58635 12.8781C5.36075 12.1037 6.41067 11.6681 7.50583 11.6667H14.2442C15.3393 11.6681 16.3893 12.1037 17.1636 12.8781C17.938 13.6525 18.3737 14.7024 18.375 15.7976V20.0001Z" fill="#AFAFAF"/>
<path d="M10.875 10C9.8861 10 8.9194 9.70676 8.09715 9.15735C7.27491 8.60794 6.63404 7.82705 6.2556 6.91342C5.87717 5.99979 5.77815 4.99446 5.97108 4.02455C6.164 3.05465 6.64021 2.16373 7.33947 1.46447C8.03873 0.765206 8.92965 0.289002 9.89955 0.0960758C10.8695 -0.0968503 11.8748 0.00216643 12.7884 0.380605C13.702 0.759043 14.4829 1.39991 15.0323 2.22215C15.5818 3.0444 15.875 4.0111 15.875 5C15.8737 6.32568 15.3465 7.59668 14.4091 8.53407C13.4717 9.47147 12.2007 9.99868 10.875 10ZM10.875 1.66667C10.2157 1.66667 9.57127 1.86217 9.0231 2.22844C8.47494 2.59471 8.0477 3.1153 7.7954 3.72439C7.54311 4.33348 7.4771 5.0037 7.60572 5.6503C7.73434 6.29691 8.0518 6.89085 8.51798 7.35703C8.98415 7.8232 9.5781 8.14067 10.2247 8.26929C10.8713 8.3979 11.5415 8.33189 12.1506 8.0796C12.7597 7.82731 13.2803 7.40007 13.6466 6.8519C14.0128 6.30374 14.2083 5.65927 14.2083 5C14.2083 4.11595 13.8571 3.2681 13.232 2.64298C12.6069 2.01786 11.7591 1.66667 10.875 1.66667Z" fill="#AFAFAF"/>
</svg>
