<svg width="27" height="26" viewBox="0 0 27 26" fill="none" xmlns="http://www.w3.org/2000/svg">
<circle cx="13.5" cy="13" r="13" fill="white"/>
<path d="M13.5 21C9.36437 21 6 17.6356 6 13.5C6 9.36437 9.36437 6 13.5 6C17.6356 6 21 9.36437 21 13.5C21 17.6356 17.6356 21 13.5 21ZM13.5 7.25C10.0538 7.25 7.25 10.0538 7.25 13.5C7.25 16.9462 10.0538 19.75 13.5 19.75C16.9462 19.75 19.75 16.9462 19.75 13.5C19.75 10.0538 16.9462 7.25 13.5 7.25ZM16.625 13.5C16.625 13.1544 16.3456 12.875 16 12.875H14.125V9.75C14.125 9.40438 13.845 9.125 13.5 9.125C13.155 9.125 12.875 9.40438 12.875 9.75V13.5C12.875 13.8456 13.155 14.125 13.5 14.125H16C16.3456 14.125 16.625 13.8456 16.625 13.5Z" fill="#FFA51E"/>
<path d="M12.5 21C8.36437 21 5 17.6356 5 13.5C5 9.36437 8.36437 6 12.5 6C16.6356 6 20 9.36437 20 13.5C20 17.6356 16.6356 21 12.5 21ZM12.5 7.25C9.05375 7.25 6.25 10.0538 6.25 13.5C6.25 16.9462 9.05375 19.75 12.5 19.75C15.9462 19.75 18.75 16.9462 18.75 13.5C18.75 10.0538 15.9462 7.25 12.5 7.25ZM15.625 13.5C15.625 13.1544 15.3456 12.875 15 12.875H13.125V9.75C13.125 9.40438 12.845 9.125 12.5 9.125C12.155 9.125 11.875 9.40438 11.875 9.75V13.5C11.875 13.8456 12.155 14.125 12.5 14.125H15C15.3456 14.125 15.625 13.8456 15.625 13.5Z" fill="#266578"/>
</svg>
