<svg width="33" height="39" viewBox="0 0 33 39" fill="none" xmlns="http://www.w3.org/2000/svg">
<path d="M29.409 4.29324L16.5 0.0146179L3.591 4.29324C2.61839 4.61567 1.77211 5.23636 1.17235 6.06715C0.572597 6.89794 0.249866 7.89659 0.25 8.92124V19.5C0.25 31.7265 15.2 38.4784 15.8403 38.7595L16.4155 39.0146L17.0135 38.8164C17.657 38.6019 32.75 33.4376 32.75 19.5V8.92124C32.7501 7.89659 32.4274 6.89794 31.8276 6.06715C31.2279 5.23636 30.3816 4.61567 29.409 4.29324ZM17.2215 23.7321C16.9374 24.0181 16.5994 24.2448 16.227 24.3991C15.8546 24.5533 15.4552 24.6321 15.0521 24.6307H14.9985C14.5872 24.6244 14.1814 24.5348 13.8058 24.3672C13.4301 24.1996 13.0923 23.9576 12.8129 23.6557L9.06563 19.7557L11.4105 17.51L15.057 21.3125L23.4761 12.8934L25.7739 15.1911L17.2215 23.7321Z" fill="#FFA51E"/>
</svg>
